<?xml version="1.0" encoding="UTF-8"?>
<svg xmlns="http://www.w3.org/2000/svg" xmlns:xlink="http://www.w3.org/1999/xlink" width="192.72" height="117.705" viewBox="0 0 192.72 117.705">
<defs>
<g>
<g id="glyph-0-0">
<path d="M 4.234375 -5.8125 C 4.109375 -6.203125 3.84375 -6.203125 3.671875 -6.203125 L 2.875 -6.203125 C 2.703125 -6.203125 2.4375 -6.203125 2.3125 -5.8125 L 0.421875 -0.421875 C 0.375 -0.296875 0.375 -0.28125 0.375 -0.234375 C 0.375 0 0.59375 0 0.71875 0 L 1.046875 0 C 1.203125 0 1.484375 0 1.609375 -0.359375 L 1.953125 -1.34375 L 4.4375 -1.34375 L 4.734375 -0.484375 C 4.84375 -0.171875 4.90625 0 5.328125 0 L 5.8125 0 C 5.9375 0 6.171875 0 6.171875 -0.234375 C 6.171875 -0.28125 6.171875 -0.296875 6.125 -0.421875 Z M 2.875 -4.015625 C 3 -4.40625 3.125 -4.75 3.1875 -5.0625 L 3.203125 -5.0625 C 3.25 -4.859375 3.25 -4.828125 3.3125 -4.625 L 4.171875 -2.125 L 2.21875 -2.125 Z M 2.875 -4.015625 "/>
</g>
<g id="glyph-0-1">
<path d="M 1.953125 -3.453125 L 2.390625 -3.453125 C 2.5 -3.453125 2.8125 -3.453125 2.8125 -3.765625 C 2.8125 -4.09375 2.5 -4.09375 2.390625 -4.09375 L 1.9375 -4.09375 L 1.9375 -5.0625 C 1.9375 -5.296875 1.9375 -5.65625 2.515625 -5.65625 C 2.796875 -5.65625 2.96875 -5.578125 3.15625 -5.40625 C 3.21875 -5.328125 3.25 -5.3125 3.28125 -5.3125 C 3.40625 -5.3125 3.40625 -5.40625 3.40625 -5.546875 L 3.40625 -5.96875 C 3.40625 -6.171875 3.390625 -6.1875 3.09375 -6.25 C 2.828125 -6.296875 2.640625 -6.296875 2.515625 -6.296875 C 1.84375 -6.296875 0.765625 -6.15625 0.765625 -4.8125 L 0.765625 -4.09375 C 0.578125 -4.09375 0.265625 -4.09375 0.265625 -3.765625 C 0.265625 -3.453125 0.578125 -3.453125 0.765625 -3.453125 L 0.765625 -0.421875 C 0.765625 -0.109375 0.859375 0 1.203125 0 L 1.53125 0 C 1.875 0 1.953125 -0.109375 1.953125 -0.421875 Z M 1.953125 -3.453125 "/>
</g>
<g id="glyph-0-2">
<path d="M 1.734375 -2.0625 C 1.734375 -2.90625 2.4375 -3.25 3 -3.28125 C 3.15625 -3.296875 3.1875 -3.296875 3.1875 -3.53125 L 3.1875 -3.953125 C 3.1875 -4.125 3.1875 -4.1875 3.015625 -4.1875 C 2.765625 -4.1875 2.125 -4.109375 1.703125 -3.140625 L 1.6875 -3.140625 L 1.6875 -3.71875 C 1.6875 -4 1.625 -4.140625 1.265625 -4.140625 L 0.96875 -4.140625 C 0.65625 -4.140625 0.546875 -4.046875 0.546875 -3.71875 L 0.546875 -0.421875 C 0.546875 -0.109375 0.640625 0 0.96875 0 L 1.3125 0 C 1.640625 0 1.734375 -0.109375 1.734375 -0.421875 Z M 1.734375 -2.0625 "/>
</g>
<g id="glyph-0-3">
<path d="M 4.625 -2.015625 C 4.625 -3.484375 3.921875 -4.25 2.453125 -4.25 C 0.96875 -4.25 0.28125 -3.453125 0.28125 -2.015625 C 0.28125 -0.546875 1.046875 0.09375 2.453125 0.09375 C 3.859375 0.09375 4.625 -0.546875 4.625 -2.015625 Z M 2.453125 -0.59375 C 1.5 -0.59375 1.5 -1.40625 1.5 -2.125 C 1.5 -2.8125 1.5 -3.609375 2.453125 -3.609375 C 3.421875 -3.609375 3.421875 -2.8125 3.421875 -2.125 C 3.421875 -1.40625 3.421875 -0.59375 2.453125 -0.59375 Z M 2.453125 -0.59375 "/>
</g>
<g id="glyph-0-4">
<path d="M 2.296875 -1.71875 C 2.40625 -1.71875 2.71875 -1.71875 2.71875 -2.046875 C 2.71875 -2.375 2.40625 -2.375 2.296875 -2.375 L 0.53125 -2.375 C 0.421875 -2.375 0.109375 -2.375 0.109375 -2.046875 C 0.109375 -1.71875 0.421875 -1.71875 0.53125 -1.71875 Z M 2.296875 -1.71875 "/>
</g>
<g id="glyph-0-5">
<path d="M 3.546875 -1.265625 C 3.546875 -1.765625 3.265625 -2.078125 3.109375 -2.21875 C 2.75 -2.53125 2.4375 -2.59375 2.0625 -2.65625 C 1.578125 -2.75 1.21875 -2.828125 1.21875 -3.171875 C 1.21875 -3.546875 1.515625 -3.609375 1.859375 -3.609375 C 2.453125 -3.609375 2.78125 -3.390625 3.015625 -3.1875 C 3.09375 -3.09375 3.125 -3.09375 3.15625 -3.09375 C 3.25 -3.09375 3.265625 -3.1875 3.265625 -3.21875 C 3.28125 -3.28125 3.375 -3.796875 3.375 -3.828125 C 3.375 -3.984375 2.90625 -4.109375 2.8125 -4.140625 C 2.453125 -4.234375 2.15625 -4.25 1.9375 -4.25 C 1.53125 -4.25 0.328125 -4.25 0.328125 -2.96875 C 0.328125 -2.53125 0.53125 -2.265625 0.765625 -2.046875 C 1.078125 -1.765625 1.4375 -1.703125 1.9375 -1.59375 C 2.203125 -1.5625 2.65625 -1.46875 2.65625 -1.078125 C 2.65625 -0.65625 2.3125 -0.59375 1.953125 -0.59375 C 1.5625 -0.59375 1.0625 -0.71875 0.640625 -1.21875 C 0.59375 -1.265625 0.578125 -1.28125 0.515625 -1.28125 C 0.421875 -1.28125 0.40625 -1.203125 0.40625 -1.15625 C 0.390625 -1.03125 0.28125 -0.515625 0.28125 -0.421875 C 0.28125 -0.265625 0.9375 -0.0625 0.953125 -0.046875 C 1.4375 0.09375 1.8125 0.09375 1.953125 0.09375 C 2.40625 0.09375 3.546875 0.0625 3.546875 -1.265625 Z M 3.546875 -1.265625 "/>
</g>
<g id="glyph-0-6">
<path d="M 0.90625 -6.21875 C 0.625 -6.21875 0.484375 -6.15625 0.484375 -5.796875 L 0.484375 -5.390625 C 0.484375 -5.109375 0.578125 -4.984375 0.90625 -4.984375 L 1.375 -4.984375 C 1.796875 -4.984375 1.796875 -5.171875 1.796875 -5.59375 C 1.796875 -6.03125 1.796875 -6.21875 1.375 -6.21875 Z M 1.734375 -3.671875 C 1.734375 -3.953125 1.671875 -4.09375 1.3125 -4.09375 L 0.96875 -4.09375 C 0.65625 -4.09375 0.546875 -4 0.546875 -3.671875 L 0.546875 -0.421875 C 0.546875 -0.109375 0.640625 0 0.96875 0 L 1.3125 0 C 1.640625 0 1.734375 -0.109375 1.734375 -0.421875 Z M 1.734375 -3.671875 "/>
</g>
<g id="glyph-0-7">
<path d="M 4.140625 -2.828125 C 4.140625 -4.234375 2.78125 -4.25 2.34375 -4.25 C 1.921875 -4.25 1.46875 -4.203125 0.875 -3.953125 C 0.6875 -3.875 0.640625 -3.859375 0.640625 -3.75 C 0.640625 -3.6875 0.703125 -3.171875 0.703125 -3.09375 C 0.71875 -3.046875 0.765625 -3 0.828125 -3 C 0.859375 -3 0.890625 -3.03125 0.921875 -3.0625 C 1.3125 -3.453125 1.75 -3.65625 2.3125 -3.65625 C 2.78125 -3.65625 2.9375 -3.359375 2.9375 -2.828125 L 2.9375 -2.515625 C 2.625 -2.515625 0.28125 -2.5 0.28125 -1.1875 C 0.28125 -0.5625 0.78125 0.09375 1.5625 0.09375 C 1.875 0.09375 2.53125 0.015625 2.953125 -0.609375 L 2.953125 -0.421875 C 2.953125 -0.140625 3.015625 0 3.390625 0 L 3.71875 0 C 4.0625 0 4.140625 -0.109375 4.140625 -0.421875 Z M 2.9375 -1.375 C 2.9375 -0.546875 2.078125 -0.546875 2.0625 -0.546875 C 1.6875 -0.546875 1.4375 -0.859375 1.4375 -1.203125 C 1.4375 -2.078125 2.6875 -2.140625 2.9375 -2.15625 Z M 2.9375 -1.375 "/>
</g>
<g id="glyph-0-8">
<path d="M 1.953125 -3.453125 L 2.75 -3.453125 C 2.84375 -3.453125 3.171875 -3.453125 3.171875 -3.765625 C 3.171875 -4.09375 2.84375 -4.09375 2.75 -4.09375 L 1.953125 -4.09375 L 1.953125 -4.828125 C 1.953125 -5.125 1.890625 -5.265625 1.515625 -5.265625 L 1.25 -5.265625 C 0.921875 -5.265625 0.8125 -5.171875 0.8125 -4.828125 L 0.8125 -4.09375 L 0.609375 -4.09375 C 0.515625 -4.09375 0.171875 -4.09375 0.171875 -3.765625 C 0.171875 -3.453125 0.5 -3.453125 0.609375 -3.453125 L 0.78125 -3.453125 L 0.78125 -1.1875 C 0.78125 -0.28125 1.109375 0.09375 1.71875 0.09375 C 1.8125 0.09375 2.203125 0.09375 2.65625 -0.046875 C 2.8125 -0.09375 3.328125 -0.25 3.328125 -0.421875 C 3.328125 -0.453125 3.3125 -0.515625 3.265625 -0.703125 C 3.21875 -0.875 3.203125 -0.921875 3.125 -0.921875 C 3.078125 -0.921875 3.0625 -0.921875 3.015625 -0.859375 C 2.90625 -0.796875 2.671875 -0.59375 2.296875 -0.59375 C 2.078125 -0.59375 1.953125 -0.75 1.953125 -1.34375 Z M 1.953125 -3.453125 "/>
</g>
<g id="glyph-0-9">
<path d="M 4.078125 -0.453125 C 4.078125 -0.546875 4.046875 -0.953125 4.03125 -1.078125 C 4.03125 -1.09375 4.015625 -1.1875 3.921875 -1.1875 C 3.890625 -1.1875 3.875 -1.1875 3.78125 -1.09375 C 3.625 -0.96875 3.203125 -0.59375 2.46875 -0.59375 C 1.546875 -0.59375 1.546875 -1.5 1.546875 -2.078125 C 1.546875 -2.796875 1.59375 -3.546875 2.5 -3.546875 C 3.078125 -3.546875 3.328125 -3.40625 3.640625 -3.140625 C 3.75 -3.03125 3.765625 -3.03125 3.8125 -3.03125 C 3.890625 -3.03125 3.921875 -3.125 3.921875 -3.15625 C 3.9375 -3.21875 4.03125 -3.734375 4.03125 -3.765625 C 4.03125 -3.859375 3.96875 -3.890625 3.8125 -3.953125 C 3.390625 -4.15625 3.125 -4.25 2.5 -4.25 C 1.15625 -4.25 0.328125 -3.625 0.328125 -2.0625 C 0.328125 -0.578125 1.09375 0.09375 2.453125 0.09375 C 2.6875 0.09375 3.21875 0.09375 3.828125 -0.21875 C 4.078125 -0.34375 4.078125 -0.359375 4.078125 -0.453125 Z M 4.078125 -0.453125 "/>
</g>
<g id="glyph-0-10">
<path d="M 7.203125 -2.90625 C 7.203125 -3.828125 6.8125 -4.1875 5.90625 -4.1875 C 5.265625 -4.1875 4.765625 -3.890625 4.453125 -3.3125 C 4.3125 -4.171875 3.546875 -4.1875 3.171875 -4.1875 C 3 -4.1875 2.625 -4.1875 2.21875 -3.890625 C 1.953125 -3.6875 1.765625 -3.40625 1.703125 -3.265625 L 1.703125 -3.71875 C 1.703125 -4 1.640625 -4.140625 1.265625 -4.140625 L 0.96875 -4.140625 C 0.640625 -4.140625 0.53125 -4.046875 0.53125 -3.71875 L 0.53125 -0.421875 C 0.53125 -0.109375 0.640625 0 0.96875 0 L 1.328125 0 C 1.65625 0 1.75 -0.109375 1.75 -0.421875 L 1.75 -2.40625 C 1.75 -3.203125 2.296875 -3.546875 2.734375 -3.546875 C 3.15625 -3.546875 3.265625 -3.359375 3.265625 -2.890625 L 3.265625 -0.421875 C 3.265625 -0.109375 3.359375 0 3.6875 0 L 4.046875 0 C 4.390625 0 4.484375 -0.109375 4.484375 -0.421875 L 4.484375 -2.40625 C 4.484375 -3.203125 5.015625 -3.546875 5.453125 -3.546875 C 5.890625 -3.546875 5.984375 -3.359375 5.984375 -2.890625 L 5.984375 -0.421875 C 5.984375 -0.109375 6.09375 0 6.421875 0 L 6.78125 0 C 7.109375 0 7.203125 -0.109375 7.203125 -0.421875 Z M 7.203125 -2.90625 "/>
</g>
<g id="glyph-0-11">
<path d="M 4.46875 -2.90625 C 4.46875 -3.828125 4.078125 -4.1875 3.15625 -4.1875 C 2.265625 -4.1875 1.859375 -3.578125 1.734375 -3.328125 L 1.71875 -3.328125 L 1.71875 -5.78125 C 1.71875 -6.0625 1.65625 -6.203125 1.296875 -6.203125 L 0.96875 -6.203125 C 0.640625 -6.203125 0.53125 -6.109375 0.53125 -5.78125 L 0.53125 -0.421875 C 0.53125 -0.109375 0.640625 0 0.96875 0 L 1.328125 0 C 1.65625 0 1.75 -0.109375 1.75 -0.421875 L 1.75 -2.40625 C 1.75 -3.1875 2.265625 -3.546875 2.734375 -3.546875 C 3.15625 -3.546875 3.25 -3.34375 3.25 -2.890625 L 3.25 -0.421875 C 3.25 -0.140625 3.3125 0 3.6875 0 L 4.046875 0 C 4.375 0 4.46875 -0.109375 4.46875 -0.421875 Z M 4.46875 -2.90625 "/>
</g>
<g id="glyph-0-12">
<path d="M 2.625 -5.25 L 2.625 -0.421875 C 2.625 -0.109375 2.71875 0 3.046875 0 L 3.5 0 C 3.84375 0 3.9375 -0.109375 3.9375 -0.421875 L 3.9375 -5.25 C 4.328125 -5.25 5.328125 -5.21875 5.71875 -5.21875 C 5.96875 -5.21875 6.1875 -5.21875 6.1875 -5.65625 L 6.1875 -5.71875 C 6.1875 -6 6.125 -6.15625 5.75 -6.15625 L 0.78125 -6.15625 C 0.46875 -6.15625 0.359375 -6.046875 0.359375 -5.71875 L 0.359375 -5.65625 C 0.359375 -5.21875 0.578125 -5.21875 0.828125 -5.21875 Z M 2.625 -5.25 "/>
</g>
<g id="glyph-0-13">
<path d="M 1.78125 -0.828125 C 1.46875 -0.828125 1.34375 -0.828125 1.21875 -0.921875 C 1.1875 -0.96875 1.03125 -1.09375 1.03125 -1.328125 C 1.03125 -1.390625 1.03125 -1.40625 1.046875 -1.46875 C 1.46875 -1.234375 2 -1.234375 2.1875 -1.234375 C 2.5625 -1.234375 3.984375 -1.234375 3.984375 -2.703125 C 3.984375 -3.21875 3.78125 -3.546875 3.703125 -3.640625 C 3.859375 -3.640625 4.171875 -3.640625 4.53125 -3.546875 C 4.5625 -3.515625 4.625 -3.5 4.65625 -3.5 C 4.734375 -3.5 4.765625 -3.5625 4.765625 -3.625 C 4.765625 -3.65625 4.734375 -3.875 4.703125 -3.953125 C 4.671875 -4.171875 4.671875 -4.1875 4.515625 -4.1875 C 4.234375 -4.1875 3.796875 -4.078125 3.453125 -3.875 C 3.03125 -4.15625 2.5625 -4.1875 2.1875 -4.1875 C 1.8125 -4.1875 0.390625 -4.1875 0.390625 -2.71875 C 0.390625 -2.359375 0.484375 -1.90625 0.828125 -1.625 C 0.578125 -1.28125 0.578125 -0.9375 0.578125 -0.890625 C 0.578125 -0.71875 0.640625 -0.421875 0.828125 -0.1875 C 0.6875 -0.140625 0.21875 0.03125 0.21875 0.59375 C 0.21875 0.875 0.359375 1.34375 0.921875 1.59375 C 1.4375 1.828125 2.03125 1.84375 2.453125 1.84375 C 2.96875 1.84375 4.6875 1.84375 4.6875 0.578125 C 4.6875 -0.828125 3.421875 -0.828125 2.21875 -0.828125 Z M 2.1875 -1.875 C 1.5625 -1.875 1.53125 -2.21875 1.53125 -2.703125 C 1.53125 -3.203125 1.5625 -3.546875 2.1875 -3.546875 C 2.8125 -3.546875 2.828125 -3.203125 2.828125 -2.71875 C 2.828125 -2.21875 2.8125 -1.875 2.1875 -1.875 Z M 2.65625 0.15625 C 3.390625 0.15625 3.765625 0.28125 3.765625 0.59375 C 3.765625 1.203125 2.75 1.203125 2.453125 1.203125 C 2.09375 1.203125 1.140625 1.203125 1.140625 0.578125 C 1.140625 0.15625 1.421875 0.15625 1.625 0.15625 Z M 2.65625 0.15625 "/>
</g>
<g id="glyph-0-14">
<path d="M 4.46875 -2.90625 C 4.46875 -3.828125 4.078125 -4.1875 3.15625 -4.1875 C 2.21875 -4.1875 1.828125 -3.515625 1.703125 -3.265625 L 1.703125 -3.71875 C 1.703125 -4 1.640625 -4.140625 1.265625 -4.140625 L 0.96875 -4.140625 C 0.640625 -4.140625 0.53125 -4.046875 0.53125 -3.71875 L 0.53125 -0.421875 C 0.53125 -0.109375 0.640625 0 0.96875 0 L 1.328125 0 C 1.65625 0 1.75 -0.109375 1.75 -0.421875 L 1.75 -2.40625 C 1.75 -3.1875 2.265625 -3.546875 2.734375 -3.546875 C 3.15625 -3.546875 3.25 -3.34375 3.25 -2.890625 L 3.25 -0.421875 C 3.25 -0.140625 3.3125 0 3.6875 0 L 4.046875 0 C 4.375 0 4.46875 -0.109375 4.46875 -0.421875 Z M 4.46875 -2.90625 "/>
</g>
<g id="glyph-0-15">
<path d="M 4.1875 -3.671875 C 4.234375 -3.796875 4.234375 -3.8125 4.234375 -3.859375 C 4.234375 -4.09375 3.984375 -4.09375 3.875 -4.09375 L 3.671875 -4.09375 C 3.53125 -4.09375 3.328125 -4.09375 3.203125 -3.890625 C 3.171875 -3.84375 2.453125 -1.875 2.40625 -1.265625 L 2.390625 -1.265625 C 2.34375 -1.703125 1.984375 -2.53125 1.59375 -3.390625 C 1.34375 -3.953125 1.28125 -4.09375 0.84375 -4.09375 L 0.609375 -4.09375 C 0.484375 -4.09375 0.265625 -4.09375 0.265625 -3.859375 C 0.265625 -3.828125 0.28125 -3.765625 0.296875 -3.71875 L 2 0 C 1.921875 0.1875 1.890625 0.28125 1.875 0.375 C 1.765625 0.671875 1.609375 1.078125 1.125 1.078125 C 0.828125 1.078125 0.625 0.953125 0.53125 0.890625 C 0.484375 0.859375 0.46875 0.84375 0.4375 0.84375 C 0.390625 0.84375 0.328125 0.875 0.328125 0.984375 C 0.328125 1.046875 0.375 1.671875 0.40625 1.703125 C 0.484375 1.8125 0.96875 1.828125 1.109375 1.828125 C 2.21875 1.828125 2.65625 0.78125 2.71875 0.5625 Z M 4.1875 -3.671875 "/>
</g>
<g id="glyph-0-16">
<path d="M 2.125 -2.78125 L 4.484375 -2.78125 C 4.75 -2.78125 4.90625 -2.84375 4.90625 -3.203125 C 4.90625 -3.53125 4.796875 -3.625 4.484375 -3.625 L 2.125 -3.625 L 2.125 -5.265625 L 2.5625 -5.265625 C 3.265625 -5.265625 3.96875 -5.25 4.671875 -5.25 C 4.984375 -5.25 5.1875 -5.25 5.1875 -5.671875 L 5.1875 -5.75 C 5.1875 -6.03125 5.125 -6.171875 4.75 -6.171875 L 1.25 -6.171875 C 0.921875 -6.171875 0.8125 -6.078125 0.8125 -5.75 L 0.8125 -0.421875 C 0.8125 -0.109375 0.90625 0 1.25 0 L 4.890625 0 C 5.234375 0 5.3125 -0.109375 5.3125 -0.421875 L 5.3125 -0.546875 C 5.3125 -0.984375 5.109375 -0.984375 4.8125 -0.984375 C 4.359375 -0.984375 3.890625 -0.96875 3.4375 -0.96875 C 3.203125 -0.96875 2.28125 -0.953125 2.125 -0.953125 Z M 2.125 -2.78125 "/>
</g>
<g id="glyph-0-17">
<path d="M 1.765625 -0.34375 C 2.15625 0.09375 2.65625 0.09375 2.78125 0.09375 C 4.671875 0.09375 4.671875 -1.625 4.671875 -2.0625 C 4.671875 -2.5 4.671875 -4.1875 3.0625 -4.1875 C 2.53125 -4.1875 2.0625 -3.984375 1.734375 -3.671875 C 1.734375 -4 1.609375 -4.09375 1.3125 -4.09375 L 0.96875 -4.09375 C 0.65625 -4.09375 0.546875 -4 0.546875 -3.671875 L 0.546875 1.3125 C 0.546875 1.625 0.640625 1.734375 0.96875 1.734375 L 1.328125 1.734375 C 1.671875 1.734375 1.765625 1.625 1.765625 1.3125 Z M 1.765625 -3.203125 C 1.859375 -3.28125 2.15625 -3.5 2.53125 -3.5 C 3.453125 -3.5 3.453125 -2.4375 3.453125 -2.046875 C 3.453125 -1.6875 3.453125 -0.546875 2.453125 -0.546875 C 2.25 -0.546875 2.078125 -0.609375 1.96875 -0.703125 C 1.765625 -0.84375 1.765625 -0.890625 1.765625 -1.046875 Z M 1.765625 -3.203125 "/>
</g>
<g id="glyph-1-0">
<path d="M 2.140625 -1.40625 C 2.140625 -1.8125 1.8125 -2.1875 1.140625 -2.1875 C 0.90625 -2.1875 0.390625 -2.1875 0.390625 -1.796875 C 0.390625 -1.671875 0.484375 -1.5625 0.640625 -1.5625 C 0.734375 -1.5625 0.859375 -1.609375 0.875 -1.796875 C 0.875 -1.828125 0.875 -1.84375 0.9375 -1.84375 C 1 -1.859375 1.078125 -1.859375 1.140625 -1.859375 C 1.546875 -1.859375 1.765625 -1.671875 1.765625 -1.390625 C 1.234375 -1.390625 0.265625 -1.265625 0.265625 -0.65625 C 0.265625 -0.296875 0.609375 0.03125 1.109375 0.03125 C 1.5 0.03125 1.75 -0.125 1.8125 -0.171875 C 1.921875 -0.015625 2.125 0 2.375 0 C 2.5 0 2.640625 0 2.640625 -0.15625 C 2.640625 -0.328125 2.5 -0.328125 2.421875 -0.328125 C 2.234375 -0.328125 2.1875 -0.34375 2.140625 -0.359375 Z M 1.765625 -0.703125 C 1.765625 -0.609375 1.765625 -0.484375 1.5625 -0.390625 C 1.390625 -0.3125 1.203125 -0.296875 1.140625 -0.296875 C 0.84375 -0.296875 0.640625 -0.484375 0.640625 -0.65625 C 0.640625 -0.921875 1.1875 -1.078125 1.765625 -1.078125 Z M 1.765625 -0.703125 "/>
</g>
<g id="glyph-1-1">
<path d="M 1.28125 -1.8125 L 1.875 -1.8125 C 1.953125 -1.8125 2.09375 -1.8125 2.09375 -1.984375 C 2.09375 -2.140625 1.953125 -2.140625 1.875 -2.140625 L 1.28125 -2.140625 L 1.28125 -2.375 C 1.28125 -2.6875 1.53125 -2.734375 1.734375 -2.734375 C 1.75 -2.578125 1.875 -2.5 1.96875 -2.5 C 2.078125 -2.5 2.203125 -2.578125 2.203125 -2.75 C 2.203125 -3.0625 1.78125 -3.0625 1.703125 -3.0625 C 1.328125 -3.0625 0.90625 -2.859375 0.90625 -2.390625 L 0.90625 -2.140625 L 0.4375 -2.140625 C 0.359375 -2.140625 0.21875 -2.140625 0.21875 -1.984375 C 0.21875 -1.8125 0.359375 -1.8125 0.421875 -1.8125 L 0.90625 -1.8125 L 0.90625 -0.328125 L 0.421875 -0.328125 C 0.359375 -0.328125 0.203125 -0.328125 0.203125 -0.15625 C 0.203125 0 0.359375 0 0.421875 0 L 1.765625 0 C 1.84375 0 1.984375 0 1.984375 -0.15625 C 1.984375 -0.328125 1.84375 -0.328125 1.765625 -0.328125 L 1.28125 -0.328125 Z M 1.28125 -1.8125 "/>
</g>
<g id="glyph-1-2">
<path d="M 1.125 -0.90625 C 1.125 -1.453125 1.515625 -1.84375 2 -1.84375 C 2 -1.640625 2.140625 -1.609375 2.21875 -1.609375 C 2.34375 -1.609375 2.453125 -1.6875 2.453125 -1.84375 C 2.453125 -1.96875 2.359375 -2.171875 1.96875 -2.171875 C 1.515625 -2.171875 1.25 -1.90625 1.125 -1.78125 L 1.125 -1.921875 C 1.125 -2.09375 1.078125 -2.140625 0.90625 -2.140625 L 0.375 -2.140625 C 0.296875 -2.140625 0.15625 -2.140625 0.15625 -1.984375 C 0.15625 -1.8125 0.296875 -1.8125 0.375 -1.8125 L 0.75 -1.8125 L 0.75 -0.328125 L 0.375 -0.328125 C 0.296875 -0.328125 0.15625 -0.328125 0.15625 -0.15625 C 0.15625 0 0.296875 0 0.375 0 L 1.65625 0 C 1.734375 0 1.859375 0 1.859375 -0.15625 C 1.859375 -0.328125 1.734375 -0.328125 1.65625 -0.328125 L 1.125 -0.328125 Z M 1.125 -0.90625 "/>
</g>
<g id="glyph-1-3">
<path d="M 2.359375 -1.078125 C 2.359375 -1.671875 1.890625 -2.1875 1.3125 -2.1875 C 0.734375 -2.1875 0.265625 -1.671875 0.265625 -1.078125 C 0.265625 -0.453125 0.75 0.03125 1.3125 0.03125 C 1.890625 0.03125 2.359375 -0.453125 2.359375 -1.078125 Z M 1.3125 -0.296875 C 0.953125 -0.296875 0.65625 -0.65625 0.65625 -1.109375 C 0.65625 -1.546875 0.96875 -1.859375 1.3125 -1.859375 C 1.671875 -1.859375 1.984375 -1.546875 1.984375 -1.109375 C 1.984375 -0.65625 1.671875 -0.296875 1.3125 -0.296875 Z M 1.3125 -0.296875 "/>
</g>
<g id="glyph-1-4">
<path d="M 1.578125 -2.875 C 1.578125 -2.953125 1.578125 -3.078125 1.421875 -3.078125 C 1.3125 -3.078125 1.28125 -3.015625 1.25 -2.96875 C 1.03125 -2.515625 0.8125 -2.484375 0.65625 -2.484375 C 0.59375 -2.46875 0.515625 -2.421875 0.515625 -2.3125 C 0.515625 -2.25 0.546875 -2.15625 0.6875 -2.15625 C 0.921875 -2.15625 1.140625 -2.296875 1.203125 -2.34375 L 1.203125 -0.328125 L 0.765625 -0.328125 C 0.6875 -0.328125 0.546875 -0.328125 0.546875 -0.15625 C 0.546875 0 0.6875 0 0.765625 0 L 2.015625 0 C 2.09375 0 2.234375 0 2.234375 -0.15625 C 2.234375 -0.328125 2.09375 -0.328125 2.015625 -0.328125 L 1.578125 -0.328125 Z M 1.578125 -2.875 "/>
</g>
<g id="glyph-1-5">
<path d="M 0.359375 -0.328125 C 0.296875 -0.265625 0.265625 -0.25 0.265625 -0.15625 C 0.265625 0 0.40625 0 0.484375 0 L 2.15625 0 C 2.328125 0 2.375 -0.046875 2.375 -0.21875 L 2.375 -0.34375 C 2.375 -0.4375 2.375 -0.5625 2.1875 -0.5625 C 2 -0.5625 2 -0.453125 2 -0.328125 L 0.890625 -0.328125 C 1.25 -0.640625 1.640625 -0.9375 1.8125 -1.09375 C 2.09375 -1.34375 2.375 -1.671875 2.375 -2.109375 C 2.375 -2.703125 1.875 -3.078125 1.25 -3.078125 C 0.671875 -3.078125 0.265625 -2.703125 0.265625 -2.28125 C 0.265625 -2.0625 0.4375 -2.015625 0.5 -2.015625 C 0.609375 -2.015625 0.75 -2.109375 0.75 -2.265625 C 0.75 -2.328125 0.71875 -2.390625 0.671875 -2.4375 C 0.765625 -2.625 0.96875 -2.75 1.234375 -2.75 C 1.625 -2.75 2 -2.53125 2 -2.109375 C 2 -1.75 1.703125 -1.453125 1.40625 -1.203125 Z M 0.359375 -0.328125 "/>
</g>
<g id="glyph-1-6">
<path d="M 0.8125 -2.703125 L 1.984375 -2.703125 C 2.046875 -2.703125 2.1875 -2.703125 2.1875 -2.875 C 2.1875 -3.03125 2.046875 -3.03125 1.984375 -3.03125 L 0.640625 -3.03125 C 0.484375 -3.03125 0.421875 -3 0.421875 -2.828125 L 0.421875 -1.5 C 0.421875 -1.40625 0.421875 -1.28125 0.59375 -1.28125 C 0.6875 -1.28125 0.703125 -1.296875 0.75 -1.34375 C 0.828125 -1.421875 0.984375 -1.59375 1.375 -1.59375 C 1.765625 -1.59375 2 -1.25 2 -0.9375 C 2 -0.578125 1.65625 -0.28125 1.234375 -0.28125 C 1.03125 -0.28125 0.78125 -0.359375 0.6875 -0.5625 C 0.703125 -0.578125 0.75 -0.640625 0.75 -0.71875 C 0.75 -0.875 0.625 -0.953125 0.5 -0.953125 C 0.390625 -0.953125 0.265625 -0.890625 0.265625 -0.703125 C 0.265625 -0.28125 0.6875 0.046875 1.234375 0.046875 C 1.875 0.046875 2.375 -0.390625 2.375 -0.9375 C 2.375 -1.453125 1.96875 -1.921875 1.390625 -1.921875 C 1.234375 -1.921875 1.03125 -1.90625 0.8125 -1.796875 Z M 0.8125 -2.703125 "/>
</g>
<g id="glyph-1-7">
<path d="M 2.3125 -1.5 C 2.3125 -1.609375 2.3125 -2.171875 1.859375 -2.171875 C 1.703125 -2.171875 1.5 -2.09375 1.359375 -1.921875 C 1.265625 -2.109375 1.140625 -2.171875 0.984375 -2.171875 C 0.890625 -2.171875 0.71875 -2.140625 0.5625 -2 C 0.53125 -2.140625 0.421875 -2.140625 0.34375 -2.140625 L 0.1875 -2.140625 C 0.109375 -2.140625 -0.03125 -2.140625 -0.03125 -1.984375 C -0.03125 -1.8125 0.09375 -1.8125 0.25 -1.8125 L 0.25 -0.328125 C 0.09375 -0.328125 -0.03125 -0.328125 -0.03125 -0.15625 C -0.03125 0 0.109375 0 0.1875 0 L 0.625 0 C 0.703125 0 0.84375 0 0.84375 -0.15625 C 0.84375 -0.328125 0.71875 -0.328125 0.5625 -0.328125 L 0.5625 -1.203125 C 0.5625 -1.609375 0.78125 -1.84375 0.96875 -1.84375 C 1.078125 -1.84375 1.125 -1.71875 1.125 -1.46875 L 1.125 -0.328125 C 1.078125 -0.328125 0.9375 -0.328125 0.9375 -0.15625 C 0.9375 0 1.078125 0 1.140625 0 L 1.5 0 C 1.578125 0 1.71875 0 1.71875 -0.15625 C 1.71875 -0.328125 1.59375 -0.328125 1.4375 -0.328125 L 1.4375 -1.203125 C 1.4375 -1.609375 1.65625 -1.84375 1.84375 -1.84375 C 1.953125 -1.84375 2 -1.71875 2 -1.46875 L 2 -0.328125 C 1.953125 -0.328125 1.8125 -0.328125 1.8125 -0.15625 C 1.8125 0 1.953125 0 2.015625 0 L 2.375 0 C 2.453125 0 2.59375 0 2.59375 -0.15625 C 2.59375 -0.328125 2.46875 -0.328125 2.3125 -0.328125 Z M 2.3125 -1.5 "/>
</g>
<g id="glyph-1-8">
<path d="M 1.40625 -0.015625 C 1.34375 0.171875 1.234375 0.296875 1.03125 0.375 C 0.984375 0.375 0.890625 0.40625 0.890625 0.515625 C 0.890625 0.609375 0.96875 0.6875 1.0625 0.6875 C 1.234375 0.6875 1.765625 0.421875 1.765625 -0.15625 C 1.765625 -0.453125 1.5625 -0.671875 1.328125 -0.671875 C 1.109375 -0.671875 0.984375 -0.515625 0.984375 -0.328125 C 0.984375 -0.171875 1.09375 0 1.328125 0 C 1.375 0 1.390625 0 1.40625 -0.015625 Z M 1.40625 -0.015625 "/>
</g>
<g id="glyph-1-9">
<path d="M 2.15625 -1.453125 C 2.15625 -1.9375 1.90625 -2.171875 1.5 -2.171875 C 1.140625 -2.171875 0.90625 -1.96875 0.84375 -1.921875 L 0.84375 -2.828125 C 0.84375 -2.984375 0.796875 -3.03125 0.640625 -3.03125 L 0.265625 -3.03125 C 0.1875 -3.03125 0.046875 -3.03125 0.046875 -2.875 C 0.046875 -2.703125 0.1875 -2.703125 0.265625 -2.703125 L 0.46875 -2.703125 L 0.46875 -0.328125 L 0.265625 -0.328125 C 0.1875 -0.328125 0.046875 -0.328125 0.046875 -0.15625 C 0.046875 0 0.1875 0 0.265625 0 L 1.046875 0 C 1.140625 0 1.265625 0 1.265625 -0.15625 C 1.265625 -0.328125 1.140625 -0.328125 1.046875 -0.328125 L 0.84375 -0.328125 L 0.84375 -1.1875 C 0.84375 -1.65625 1.234375 -1.84375 1.484375 -1.84375 C 1.703125 -1.84375 1.78125 -1.734375 1.78125 -1.4375 L 1.78125 -0.328125 L 1.625 -0.328125 C 1.546875 -0.328125 1.40625 -0.328125 1.40625 -0.15625 C 1.40625 0 1.546875 0 1.625 0 L 2.359375 0 C 2.4375 0 2.578125 0 2.578125 -0.15625 C 2.578125 -0.328125 2.4375 -0.328125 2.359375 -0.328125 L 2.15625 -0.328125 Z M 2.15625 -1.453125 "/>
</g>
<g id="glyph-1-10">
<path d="M 0.1875 -1.234375 C 0.15625 -1.171875 0.15625 -1.15625 0.15625 -1.046875 C 0.15625 -0.90625 0.171875 -0.828125 0.359375 -0.828125 L 1.59375 -0.828125 L 1.59375 -0.328125 L 1.296875 -0.328125 C 1.21875 -0.328125 1.09375 -0.328125 1.09375 -0.15625 C 1.09375 0 1.21875 0 1.296875 0 L 2.203125 0 C 2.28125 0 2.421875 0 2.421875 -0.15625 C 2.421875 -0.328125 2.28125 -0.328125 2.203125 -0.328125 L 1.90625 -0.328125 L 1.90625 -0.828125 L 2.265625 -0.828125 C 2.34375 -0.828125 2.484375 -0.828125 2.484375 -1 C 2.484375 -1.15625 2.34375 -1.15625 2.265625 -1.15625 L 1.90625 -1.15625 L 1.90625 -2.890625 C 1.90625 -3.0625 1.859375 -3.109375 1.6875 -3.109375 L 1.546875 -3.109375 C 1.421875 -3.109375 1.390625 -3.109375 1.328125 -3 Z M 0.53125 -1.15625 L 1.59375 -2.84375 L 1.59375 -1.15625 Z M 0.53125 -1.15625 "/>
</g>
<g id="glyph-1-11">
<path d="M 1.140625 -1.8125 L 1.921875 -1.8125 C 2 -1.8125 2.140625 -1.8125 2.140625 -1.984375 C 2.140625 -2.140625 2 -2.140625 1.921875 -2.140625 L 1.140625 -2.140625 L 1.140625 -2.53125 C 1.140625 -2.640625 1.140625 -2.75 0.9375 -2.75 C 0.75 -2.75 0.75 -2.625 0.75 -2.53125 L 0.75 -2.140625 L 0.34375 -2.140625 C 0.265625 -2.140625 0.125 -2.140625 0.125 -1.984375 C 0.125 -1.8125 0.265625 -1.8125 0.34375 -1.8125 L 0.75 -1.8125 L 0.75 -0.6875 C 0.75 -0.140625 1.140625 0.03125 1.484375 0.03125 C 1.921875 0.03125 2.25 -0.28125 2.25 -0.640625 C 2.25 -0.8125 2.109375 -0.8125 2.0625 -0.8125 C 1.9375 -0.8125 1.890625 -0.765625 1.875 -0.640625 C 1.875 -0.4375 1.6875 -0.296875 1.5 -0.296875 C 1.140625 -0.296875 1.140625 -0.578125 1.140625 -0.6875 Z M 1.140625 -1.8125 "/>
</g>
<g id="glyph-1-12">
<path d="M 1.5625 -2.765625 C 1.5625 -2.921875 1.453125 -3.046875 1.296875 -3.046875 C 1.15625 -3.046875 1.03125 -2.921875 1.03125 -2.765625 C 1.03125 -2.625 1.15625 -2.5 1.296875 -2.5 C 1.453125 -2.5 1.5625 -2.625 1.5625 -2.765625 Z M 0.65625 -2.140625 C 0.578125 -2.140625 0.4375 -2.140625 0.4375 -1.984375 C 0.4375 -1.8125 0.578125 -1.8125 0.65625 -1.8125 L 1.1875 -1.8125 L 1.1875 -0.328125 L 0.609375 -0.328125 C 0.53125 -0.328125 0.390625 -0.328125 0.390625 -0.15625 C 0.390625 0 0.546875 0 0.609375 0 L 2.078125 0 C 2.140625 0 2.296875 0 2.296875 -0.15625 C 2.296875 -0.328125 2.140625 -0.328125 2.078125 -0.328125 L 1.5625 -0.328125 L 1.5625 -1.921875 C 1.5625 -2.09375 1.515625 -2.140625 1.359375 -2.140625 Z M 0.65625 -2.140625 "/>
</g>
<g id="glyph-1-13">
<path d="M 0.71875 -0.6875 C 0.8125 -0.640625 0.96875 -0.5625 1.171875 -0.5625 C 1.65625 -0.5625 2.015625 -0.9375 2.015625 -1.359375 C 2.015625 -1.546875 1.953125 -1.6875 1.890625 -1.78125 C 2 -1.84375 2.046875 -1.84375 2.125 -1.859375 C 2.15625 -1.734375 2.25 -1.6875 2.34375 -1.6875 C 2.46875 -1.6875 2.5625 -1.78125 2.5625 -1.890625 C 2.5625 -2.046875 2.4375 -2.1875 2.1875 -2.1875 C 2.046875 -2.1875 1.828125 -2.15625 1.65625 -2.015625 C 1.609375 -2.046875 1.421875 -2.171875 1.171875 -2.171875 C 0.6875 -2.171875 0.328125 -1.796875 0.328125 -1.359375 C 0.328125 -1.203125 0.375 -1.03125 0.484375 -0.90625 C 0.4375 -0.84375 0.375 -0.703125 0.375 -0.5625 C 0.375 -0.421875 0.4375 -0.28125 0.5 -0.203125 C 0.296875 -0.09375 0.15625 0.15625 0.15625 0.390625 C 0.15625 0.828125 0.6875 1.140625 1.3125 1.140625 C 1.953125 1.140625 2.484375 0.828125 2.484375 0.390625 C 2.484375 -0.03125 2.109375 -0.296875 1.578125 -0.3125 C 1.421875 -0.3125 1.0625 -0.3125 0.921875 -0.328125 C 0.703125 -0.328125 0.703125 -0.5625 0.703125 -0.5625 C 0.703125 -0.625 0.703125 -0.65625 0.71875 -0.6875 Z M 1.171875 -0.890625 C 0.921875 -0.890625 0.703125 -1.09375 0.703125 -1.359375 C 0.703125 -1.640625 0.921875 -1.84375 1.171875 -1.84375 C 1.421875 -1.84375 1.640625 -1.625 1.640625 -1.359375 C 1.640625 -1.109375 1.4375 -0.890625 1.171875 -0.890625 Z M 1.171875 0 C 1.609375 0 2.171875 0 2.171875 0.390625 C 2.171875 0.59375 1.8125 0.8125 1.3125 0.8125 C 0.8125 0.8125 0.46875 0.59375 0.46875 0.390625 C 0.46875 0.203125 0.640625 0 0.90625 0 Z M 1.171875 0 "/>
</g>
<g id="glyph-1-14">
<path d="M 1.84375 -2.703125 C 1.21875 -2.015625 0.84375 -1.125 0.84375 -0.1875 C 0.84375 -0.140625 0.84375 0.046875 1.03125 0.046875 C 1.21875 0.046875 1.21875 -0.125 1.21875 -0.203125 C 1.21875 -0.6875 1.34375 -1.15625 1.53125 -1.59375 C 1.796875 -2.203125 2.1875 -2.578125 2.359375 -2.75 C 2.40625 -2.78125 2.421875 -2.8125 2.421875 -2.875 C 2.421875 -3.03125 2.28125 -3.03125 2.203125 -3.03125 L 0.578125 -3.03125 C 0.546875 -3.109375 0.453125 -3.109375 0.40625 -3.109375 C 0.21875 -3.109375 0.21875 -3 0.21875 -2.90625 L 0.21875 -2.6875 C 0.21875 -2.59375 0.21875 -2.46875 0.40625 -2.46875 C 0.59375 -2.46875 0.59375 -2.59375 0.59375 -2.703125 Z M 1.84375 -2.703125 "/>
</g>
<g id="glyph-1-15">
<path d="M 0.84375 -1.40625 L 1.46875 -1.40625 C 1.46875 -1.234375 1.46875 -1.125 1.671875 -1.125 C 1.859375 -1.125 1.859375 -1.25 1.859375 -1.34375 L 1.859375 -1.796875 C 1.859375 -1.890625 1.859375 -2.015625 1.671875 -2.015625 C 1.46875 -2.015625 1.46875 -1.90625 1.46875 -1.734375 L 0.84375 -1.734375 L 0.84375 -2.703125 L 2.03125 -2.703125 L 2.03125 -2.453125 C 2.03125 -2.359375 2.03125 -2.234375 2.21875 -2.234375 C 2.421875 -2.234375 2.421875 -2.359375 2.421875 -2.453125 L 2.421875 -2.828125 C 2.421875 -2.984375 2.359375 -3.03125 2.203125 -3.03125 L 0.34375 -3.03125 C 0.265625 -3.03125 0.125 -3.03125 0.125 -2.875 C 0.125 -2.703125 0.265625 -2.703125 0.34375 -2.703125 L 0.46875 -2.703125 L 0.46875 -0.328125 L 0.34375 -0.328125 C 0.265625 -0.328125 0.125 -0.328125 0.125 -0.15625 C 0.125 0 0.265625 0 0.34375 0 L 2.3125 0 C 2.46875 0 2.53125 -0.046875 2.53125 -0.21875 L 2.53125 -0.65625 C 2.53125 -0.75 2.53125 -0.875 2.328125 -0.875 C 2.140625 -0.875 2.140625 -0.75 2.140625 -0.65625 L 2.140625 -0.328125 L 0.84375 -0.328125 Z M 0.84375 -1.40625 "/>
</g>
<g id="glyph-1-16">
<path d="M 1.5 -2.703125 L 2.125 -2.703125 L 2.125 -2.453125 C 2.125 -2.359375 2.125 -2.234375 2.3125 -2.234375 C 2.5 -2.234375 2.5 -2.359375 2.5 -2.453125 L 2.5 -2.828125 C 2.5 -2.984375 2.453125 -3.03125 2.28125 -3.03125 L 0.359375 -3.03125 C 0.203125 -3.03125 0.140625 -3 0.140625 -2.828125 L 0.140625 -2.453125 C 0.140625 -2.359375 0.140625 -2.234375 0.328125 -2.234375 C 0.515625 -2.234375 0.515625 -2.359375 0.515625 -2.453125 L 0.515625 -2.703125 L 1.125 -2.703125 L 1.125 -0.328125 L 0.890625 -0.328125 C 0.8125 -0.328125 0.671875 -0.328125 0.671875 -0.15625 C 0.671875 0 0.8125 0 0.890625 0 L 1.75 0 C 1.8125 0 1.96875 0 1.96875 -0.15625 C 1.96875 -0.328125 1.8125 -0.328125 1.75 -0.328125 L 1.5 -0.328125 Z M 1.5 -2.703125 "/>
</g>
<g id="glyph-1-17">
<path d="M 2.21875 -2.703125 L 2.3125 -2.703125 C 2.390625 -2.703125 2.53125 -2.703125 2.53125 -2.875 C 2.53125 -3.03125 2.390625 -3.03125 2.3125 -3.03125 L 1.734375 -3.03125 C 1.65625 -3.03125 1.515625 -3.03125 1.515625 -2.875 C 1.515625 -2.703125 1.65625 -2.703125 1.734375 -2.703125 L 1.828125 -2.703125 L 1.828125 -1.75 L 0.796875 -1.75 L 0.796875 -2.703125 L 0.90625 -2.703125 C 0.984375 -2.703125 1.125 -2.703125 1.125 -2.875 C 1.125 -3.03125 0.984375 -3.03125 0.90625 -3.03125 L 0.3125 -3.03125 C 0.25 -3.03125 0.09375 -3.03125 0.09375 -2.875 C 0.09375 -2.703125 0.25 -2.703125 0.3125 -2.703125 L 0.421875 -2.703125 L 0.421875 -0.328125 L 0.3125 -0.328125 C 0.25 -0.328125 0.09375 -0.328125 0.09375 -0.15625 C 0.09375 0 0.25 0 0.3125 0 L 0.90625 0 C 0.984375 0 1.125 0 1.125 -0.15625 C 1.125 -0.328125 0.984375 -0.328125 0.90625 -0.328125 L 0.796875 -0.328125 L 0.796875 -1.421875 L 1.828125 -1.421875 L 1.828125 -0.328125 L 1.734375 -0.328125 C 1.65625 -0.328125 1.515625 -0.328125 1.515625 -0.15625 C 1.515625 0 1.65625 0 1.734375 0 L 2.3125 0 C 2.390625 0 2.53125 0 2.53125 -0.15625 C 2.53125 -0.328125 2.390625 -0.328125 2.3125 -0.328125 L 2.21875 -0.328125 Z M 2.21875 -2.703125 "/>
</g>
<g id="glyph-1-18">
<path d="M 2.25 -1.03125 C 2.359375 -1.03125 2.484375 -1.03125 2.484375 -1.1875 C 2.484375 -1.34375 2.359375 -1.34375 2.28125 -1.34375 L 1.671875 -1.34375 C 1.59375 -1.34375 1.453125 -1.34375 1.453125 -1.1875 C 1.453125 -1.03125 1.59375 -1.03125 1.671875 -1.03125 L 1.875 -1.03125 C 1.8125 -0.59375 1.625 -0.28125 1.328125 -0.28125 C 0.9375 -0.28125 0.5625 -0.796875 0.5625 -1.515625 C 0.5625 -2.25 0.953125 -2.75 1.328125 -2.75 C 1.484375 -2.75 1.796875 -2.640625 1.875 -2.125 C 1.890625 -1.984375 2.015625 -1.984375 2.0625 -1.984375 C 2.25 -1.984375 2.25 -2.09375 2.25 -2.1875 L 2.25 -2.875 C 2.25 -2.953125 2.25 -3.078125 2.09375 -3.078125 C 2 -3.078125 1.96875 -3.046875 1.875 -2.875 C 1.671875 -3.03125 1.484375 -3.078125 1.3125 -3.078125 C 0.703125 -3.078125 0.1875 -2.421875 0.1875 -1.515625 C 0.1875 -0.609375 0.703125 0.046875 1.3125 0.046875 C 1.578125 0.046875 1.78125 -0.09375 1.875 -0.171875 C 1.875 0 2 0 2.0625 0 C 2.25 0 2.25 -0.125 2.25 -0.21875 Z M 2.25 -1.03125 "/>
</g>
<g id="glyph-1-19">
<path d="M 2.125 -0.9375 C 2.21875 -0.9375 2.328125 -0.9375 2.328125 -1.125 C 2.328125 -1.71875 2 -2.1875 1.359375 -2.1875 C 0.75 -2.1875 0.265625 -1.6875 0.265625 -1.078125 C 0.265625 -0.484375 0.765625 0.03125 1.4375 0.03125 C 2.109375 0.03125 2.328125 -0.40625 2.328125 -0.53125 C 2.328125 -0.640625 2.25 -0.6875 2.140625 -0.6875 C 2.0625 -0.6875 2.015625 -0.6875 1.96875 -0.578125 C 1.859375 -0.359375 1.625 -0.296875 1.453125 -0.296875 C 1.09375 -0.296875 0.734375 -0.546875 0.65625 -0.9375 Z M 0.65625 -1.25 C 0.734375 -1.609375 1.03125 -1.859375 1.359375 -1.859375 C 1.796875 -1.859375 1.921875 -1.5 1.953125 -1.25 Z M 0.65625 -1.25 "/>
</g>
<g id="glyph-1-20">
<path d="M 1.40625 -2.515625 C 1.40625 -2.375 1.40625 -2 1 -1.78125 C 0.953125 -1.75 0.890625 -1.71875 0.890625 -1.625 C 0.890625 -1.546875 0.96875 -1.453125 1.0625 -1.453125 C 1.1875 -1.453125 1.734375 -1.8125 1.734375 -2.453125 C 1.734375 -2.8125 1.5625 -3.03125 1.328125 -3.03125 C 1.140625 -3.03125 1.046875 -2.890625 1.046875 -2.765625 C 1.046875 -2.625 1.15625 -2.5 1.3125 -2.5 C 1.359375 -2.5 1.390625 -2.515625 1.40625 -2.515625 Z M 1.40625 -2.515625 "/>
</g>
<g id="glyph-1-21">
<path d="M 2.296875 -1.78125 C 2.375 -1.859375 2.375 -1.890625 2.375 -1.953125 C 2.375 -2.140625 2.25 -2.140625 2.15625 -2.140625 L 0.46875 -2.140625 C 0.3125 -2.140625 0.25 -2.109375 0.25 -1.921875 L 0.25 -1.6875 C 0.25 -1.59375 0.25 -1.484375 0.4375 -1.484375 C 0.625 -1.484375 0.625 -1.59375 0.625 -1.6875 L 0.625 -1.8125 L 1.796875 -1.8125 L 0.234375 -0.359375 C 0.15625 -0.28125 0.15625 -0.25 0.15625 -0.1875 C 0.15625 0 0.28125 0 0.375 0 L 2.171875 0 C 2.328125 0 2.390625 -0.046875 2.390625 -0.21875 L 2.390625 -0.5 C 2.390625 -0.59375 2.390625 -0.71875 2.203125 -0.71875 C 2 -0.71875 2 -0.59375 2 -0.5 L 2 -0.328125 L 0.734375 -0.328125 Z M 2.296875 -1.78125 "/>
</g>
<g id="glyph-2-0">
<path d="M 1.53125 -1.96875 L 2 -1.96875 C 2.09375 -1.96875 2.15625 -1.96875 2.15625 -2.078125 C 2.15625 -2.140625 2.09375 -2.140625 2.015625 -2.140625 L 1.5625 -2.140625 C 1.625 -2.46875 1.6875 -2.765625 1.703125 -2.875 C 1.765625 -3.125 1.8125 -3.359375 2 -3.359375 C 2.09375 -3.359375 2.171875 -3.34375 2.21875 -3.296875 C 2.125 -3.25 2.0625 -3.15625 2.0625 -3.0625 C 2.0625 -2.921875 2.1875 -2.890625 2.234375 -2.890625 C 2.390625 -2.890625 2.5 -3.015625 2.5 -3.171875 C 2.5 -3.375 2.265625 -3.5 2 -3.5 C 1.46875 -3.5 1.34375 -2.90625 1.328125 -2.75 L 1.203125 -2.140625 L 0.828125 -2.140625 C 0.734375 -2.140625 0.671875 -2.140625 0.671875 -2.03125 C 0.671875 -1.96875 0.734375 -1.96875 0.8125 -1.96875 L 1.171875 -1.96875 L 0.84375 -0.203125 C 0.640625 0.875 0.5 0.875 0.390625 0.875 C 0.375 0.875 0.265625 0.875 0.1875 0.796875 C 0.34375 0.734375 0.34375 0.59375 0.34375 0.578125 C 0.34375 0.4375 0.21875 0.40625 0.171875 0.40625 C 0.03125 0.40625 -0.078125 0.53125 -0.078125 0.6875 C -0.078125 0.90625 0.15625 1.015625 0.390625 1.015625 C 0.859375 1.015625 1.0625 0.375 1.125 0.140625 C 1.171875 -0.03125 1.21875 -0.203125 1.234375 -0.375 Z M 1.53125 -1.96875 "/>
</g>
<g id="glyph-2-1">
<path d="M 2.71875 -1.84375 C 2.734375 -1.921875 2.734375 -1.921875 2.734375 -1.953125 C 2.734375 -2.0625 2.65625 -2.09375 2.578125 -2.09375 C 2.421875 -2.09375 2.375 -1.921875 2.359375 -1.90625 C 2.234375 -2.109375 2.0625 -2.1875 1.875 -2.1875 C 1.265625 -2.1875 0.640625 -1.484375 0.640625 -0.765625 C 0.640625 -0.234375 0.984375 0.046875 1.34375 0.046875 C 1.671875 0.046875 1.921875 -0.1875 2.03125 -0.28125 C 2.09375 -0.046875 2.328125 0.046875 2.5 0.046875 C 2.65625 0.046875 2.78125 -0.03125 2.890625 -0.203125 C 3.015625 -0.390625 3.078125 -0.703125 3.078125 -0.703125 C 3.078125 -0.78125 3.015625 -0.78125 2.984375 -0.78125 C 2.890625 -0.78125 2.890625 -0.765625 2.859375 -0.640625 C 2.78125 -0.375 2.703125 -0.09375 2.515625 -0.09375 C 2.375 -0.09375 2.359375 -0.234375 2.359375 -0.328125 C 2.359375 -0.40625 2.359375 -0.421875 2.390625 -0.53125 Z M 2.0625 -0.671875 C 2.015625 -0.515625 1.90625 -0.40625 1.796875 -0.296875 C 1.59375 -0.109375 1.4375 -0.09375 1.359375 -0.09375 C 1.140625 -0.09375 1.015625 -0.296875 1.015625 -0.5625 C 1.015625 -0.765625 1.140625 -1.3125 1.28125 -1.578125 C 1.4375 -1.875 1.671875 -2.046875 1.875 -2.046875 C 2.21875 -2.046875 2.28125 -1.625 2.28125 -1.5625 C 2.28125 -1.5625 2.28125 -1.53125 2.265625 -1.5 Z M 2.0625 -0.671875 "/>
</g>
<g id="glyph-2-2">
<path d="M 2.296875 -0.4375 C 2.265625 -0.328125 2.21875 -0.125 2.21875 -0.09375 C 2.21875 0.015625 2.296875 0.046875 2.375 0.046875 C 2.546875 0.046875 2.578125 -0.09375 2.59375 -0.171875 C 2.625 -0.265625 2.6875 -0.5 2.71875 -0.609375 C 2.734375 -0.6875 2.78125 -0.875 2.796875 -0.953125 C 2.8125 -1 2.875 -1.25 2.875 -1.28125 C 2.890625 -1.3125 3.03125 -1.640625 3.234375 -1.828125 C 3.390625 -1.96875 3.5625 -2.046875 3.765625 -2.046875 C 3.984375 -2.046875 4.046875 -1.875 4.046875 -1.71875 C 4.046875 -1.421875 3.8125 -0.8125 3.71875 -0.59375 C 3.671875 -0.46875 3.671875 -0.4375 3.671875 -0.375 C 3.671875 -0.09375 3.890625 0.046875 4.125 0.046875 C 4.609375 0.046875 4.84375 -0.625 4.84375 -0.703125 C 4.84375 -0.78125 4.78125 -0.78125 4.734375 -0.78125 C 4.640625 -0.78125 4.640625 -0.765625 4.609375 -0.671875 C 4.53125 -0.359375 4.359375 -0.09375 4.140625 -0.09375 C 4.0625 -0.09375 4.015625 -0.125 4.015625 -0.265625 C 4.015625 -0.375 4.046875 -0.484375 4.09375 -0.59375 C 4.1875 -0.828125 4.390625 -1.359375 4.390625 -1.640625 C 4.390625 -2.03125 4.125 -2.1875 3.78125 -2.1875 C 3.40625 -2.1875 3.140625 -1.984375 2.9375 -1.71875 C 2.890625 -2.125 2.546875 -2.1875 2.328125 -2.1875 C 1.875 -2.1875 1.625 -1.890625 1.515625 -1.765625 C 1.484375 -2.078125 1.21875 -2.1875 1.015625 -2.1875 C 0.8125 -2.1875 0.703125 -2.046875 0.625 -1.921875 C 0.515625 -1.765625 0.4375 -1.453125 0.4375 -1.4375 C 0.4375 -1.359375 0.5 -1.359375 0.546875 -1.359375 C 0.625 -1.359375 0.640625 -1.375 0.671875 -1.515625 C 0.75 -1.859375 0.84375 -2.046875 1 -2.046875 C 1.15625 -2.046875 1.15625 -1.875 1.15625 -1.8125 C 1.15625 -1.71875 1.09375 -1.46875 1.046875 -1.296875 L 0.921875 -0.75 C 0.90625 -0.6875 0.84375 -0.484375 0.828125 -0.421875 C 0.8125 -0.3125 0.765625 -0.140625 0.765625 -0.09375 C 0.765625 0.015625 0.84375 0.046875 0.921875 0.046875 C 1.078125 0.046875 1.125 -0.09375 1.140625 -0.171875 C 1.15625 -0.265625 1.21875 -0.5 1.25 -0.609375 C 1.328125 -0.921875 1.40625 -1.234375 1.421875 -1.28125 C 1.421875 -1.296875 1.578125 -1.671875 1.796875 -1.859375 C 1.875 -1.90625 2.046875 -2.046875 2.3125 -2.046875 C 2.53125 -2.046875 2.59375 -1.875 2.59375 -1.703125 C 2.59375 -1.59375 2.546875 -1.453125 2.53125 -1.328125 C 2.5 -1.234375 2.421875 -0.96875 2.40625 -0.859375 Z M 2.296875 -0.4375 "/>
</g>
<g id="glyph-2-3">
<path d="M 1.78125 -3.09375 C 1.78125 -3.203125 1.703125 -3.265625 1.59375 -3.265625 C 1.453125 -3.265625 1.34375 -3.140625 1.34375 -3.03125 C 1.34375 -2.9375 1.40625 -2.859375 1.53125 -2.859375 C 1.65625 -2.859375 1.78125 -2.96875 1.78125 -3.09375 Z M 1.046875 -1.234375 C 1.015625 -1.140625 0.921875 -0.90625 0.875 -0.765625 C 0.828125 -0.640625 0.75 -0.453125 0.75 -0.375 C 0.75 -0.140625 0.9375 0.046875 1.203125 0.046875 C 1.6875 0.046875 1.921875 -0.625 1.921875 -0.703125 C 1.921875 -0.78125 1.859375 -0.78125 1.8125 -0.78125 C 1.71875 -0.78125 1.71875 -0.765625 1.6875 -0.671875 C 1.625 -0.4375 1.46875 -0.09375 1.21875 -0.09375 C 1.09375 -0.09375 1.09375 -0.203125 1.09375 -0.265625 C 1.09375 -0.375 1.171875 -0.59375 1.234375 -0.75 C 1.296875 -0.90625 1.546875 -1.53125 1.5625 -1.609375 C 1.59375 -1.6875 1.59375 -1.703125 1.59375 -1.78125 C 1.59375 -2 1.421875 -2.1875 1.15625 -2.1875 C 0.671875 -2.1875 0.4375 -1.515625 0.4375 -1.4375 C 0.4375 -1.359375 0.5 -1.359375 0.546875 -1.359375 C 0.59375 -1.359375 0.625 -1.359375 0.640625 -1.4375 C 0.8125 -2 1.046875 -2.046875 1.140625 -2.046875 C 1.203125 -2.046875 1.265625 -2.03125 1.265625 -1.890625 C 1.265625 -1.78125 1.21875 -1.671875 1.1875 -1.5625 Z M 1.046875 -1.234375 "/>
</g>
<g id="glyph-2-4">
<path d="M 1.640625 -3.296875 C 1.640625 -3.328125 1.65625 -3.359375 1.65625 -3.375 C 1.65625 -3.453125 1.5625 -3.453125 1.515625 -3.4375 L 0.984375 -3.40625 C 0.921875 -3.390625 0.84375 -3.390625 0.84375 -3.28125 C 0.84375 -3.21875 0.921875 -3.21875 0.984375 -3.21875 C 1.21875 -3.21875 1.21875 -3.1875 1.21875 -3.140625 C 1.21875 -3.09375 1.203125 -3.0625 1.203125 -3.03125 L 0.59375 -0.59375 C 0.5625 -0.484375 0.5625 -0.453125 0.5625 -0.421875 C 0.5625 -0.09375 0.828125 0.046875 1.046875 0.046875 C 1.171875 0.046875 1.328125 0.015625 1.453125 -0.21875 C 1.5625 -0.40625 1.625 -0.6875 1.625 -0.703125 C 1.625 -0.78125 1.5625 -0.78125 1.53125 -0.78125 C 1.4375 -0.78125 1.4375 -0.765625 1.40625 -0.671875 C 1.34375 -0.40625 1.25 -0.09375 1.0625 -0.09375 C 0.921875 -0.09375 0.90625 -0.234375 0.90625 -0.328125 C 0.90625 -0.40625 0.9375 -0.515625 0.9375 -0.53125 Z M 1.640625 -3.296875 "/>
</g>
<g id="glyph-2-5">
<path d="M 2.875 -1.9375 C 2.890625 -1.984375 2.890625 -1.984375 2.890625 -2 C 2.890625 -2.0625 2.84375 -2.140625 2.734375 -2.140625 C 2.578125 -2.140625 2.53125 -2 2.515625 -1.921875 L 2.1875 -0.609375 C 2.171875 -0.53125 1.953125 -0.09375 1.578125 -0.09375 C 1.328125 -0.09375 1.25 -0.28125 1.25 -0.484375 C 1.25 -0.765625 1.390625 -1.15625 1.546875 -1.53125 C 1.578125 -1.625 1.59375 -1.671875 1.59375 -1.78125 C 1.59375 -2.015625 1.40625 -2.1875 1.15625 -2.1875 C 0.671875 -2.1875 0.4375 -1.515625 0.4375 -1.4375 C 0.4375 -1.359375 0.5 -1.359375 0.546875 -1.359375 C 0.59375 -1.359375 0.625 -1.359375 0.640625 -1.4375 C 0.796875 -1.96875 1.03125 -2.046875 1.140625 -2.046875 C 1.234375 -2.046875 1.265625 -2 1.265625 -1.890625 C 1.265625 -1.78125 1.234375 -1.6875 1.140625 -1.453125 C 0.953125 -0.984375 0.90625 -0.75 0.90625 -0.5625 C 0.90625 -0.078125 1.265625 0.046875 1.5625 0.046875 C 1.734375 0.046875 1.890625 0 2.078125 -0.15625 C 2.015625 0.078125 1.953125 0.328125 1.734375 0.59375 C 1.5625 0.78125 1.375 0.875 1.1875 0.875 C 1.046875 0.875 0.921875 0.8125 0.875 0.6875 C 1.03125 0.65625 1.078125 0.515625 1.078125 0.4375 C 1.078125 0.359375 1.015625 0.28125 0.90625 0.28125 C 0.8125 0.28125 0.640625 0.328125 0.640625 0.578125 C 0.640625 0.828125 0.859375 1.015625 1.1875 1.015625 C 1.78125 1.015625 2.28125 0.484375 2.390625 0.03125 Z M 2.875 -1.9375 "/>
</g>
<g id="glyph-2-6">
<path d="M 1.328125 -0.921875 C 1.34375 -1.03125 1.375 -1.140625 1.40625 -1.25 C 1.4375 -1.359375 1.484375 -1.578125 1.703125 -1.828125 C 1.8125 -1.9375 1.953125 -2.046875 2.171875 -2.046875 C 2.21875 -2.046875 2.390625 -2.046875 2.515625 -1.96875 C 2.40625 -1.921875 2.359375 -1.828125 2.359375 -1.75 C 2.359375 -1.609375 2.46875 -1.578125 2.53125 -1.578125 C 2.625 -1.578125 2.78125 -1.640625 2.78125 -1.84375 C 2.78125 -2.109375 2.46875 -2.1875 2.1875 -2.1875 C 2.046875 -2.1875 1.78125 -2.1875 1.5 -1.859375 C 1.421875 -2.125 1.15625 -2.1875 1.015625 -2.1875 C 0.8125 -2.1875 0.703125 -2.046875 0.625 -1.921875 C 0.515625 -1.765625 0.4375 -1.453125 0.4375 -1.4375 C 0.4375 -1.359375 0.5 -1.359375 0.546875 -1.359375 C 0.625 -1.359375 0.640625 -1.375 0.671875 -1.515625 C 0.75 -1.859375 0.84375 -2.046875 1 -2.046875 C 1.15625 -2.046875 1.15625 -1.875 1.15625 -1.8125 C 1.15625 -1.71875 1.09375 -1.46875 1.046875 -1.296875 L 0.921875 -0.75 C 0.90625 -0.6875 0.84375 -0.484375 0.828125 -0.421875 C 0.8125 -0.3125 0.765625 -0.140625 0.765625 -0.09375 C 0.765625 0.015625 0.84375 0.046875 0.921875 0.046875 C 1.03125 0.046875 1.09375 -0.03125 1.109375 -0.0625 C 1.125 -0.109375 1.171875 -0.28125 1.1875 -0.390625 Z M 1.328125 -0.921875 "/>
</g>
<g id="glyph-2-7">
<path d="M 1.421875 -1.140625 C 1.640625 -1.140625 2.625 -1.140625 2.625 -1.75 C 2.625 -2.015625 2.359375 -2.1875 2.015625 -2.1875 C 1.453125 -2.1875 0.671875 -1.75 0.671875 -0.875 C 0.671875 -0.34375 0.984375 0.046875 1.515625 0.046875 C 2.3125 0.046875 2.6875 -0.421875 2.6875 -0.484375 C 2.6875 -0.515625 2.625 -0.59375 2.578125 -0.59375 C 2.546875 -0.59375 2.53125 -0.59375 2.5 -0.546875 C 2.203125 -0.1875 1.765625 -0.09375 1.515625 -0.09375 C 1.1875 -0.09375 1.046875 -0.359375 1.046875 -0.671875 C 1.046875 -0.828125 1.078125 -0.984375 1.125 -1.140625 Z M 1.15625 -1.265625 C 1.375 -2.046875 1.953125 -2.046875 2.015625 -2.046875 C 2.21875 -2.046875 2.375 -1.9375 2.375 -1.765625 C 2.375 -1.265625 1.578125 -1.265625 1.390625 -1.265625 Z M 1.15625 -1.265625 "/>
</g>
<g id="glyph-2-8">
<path d="M 2.71875 -1.84375 C 2.734375 -1.921875 2.734375 -1.921875 2.734375 -1.953125 C 2.734375 -2.0625 2.65625 -2.09375 2.578125 -2.09375 C 2.46875 -2.09375 2.390625 -2.015625 2.359375 -1.921875 C 2.234375 -2.109375 2.0625 -2.1875 1.875 -2.1875 C 1.265625 -2.1875 0.640625 -1.5 0.640625 -0.796875 C 0.640625 -0.34375 0.9375 0 1.359375 0 C 1.609375 0 1.8125 -0.140625 1.953125 -0.25 C 1.9375 -0.1875 1.796875 0.359375 1.796875 0.359375 C 1.75 0.46875 1.5625 0.875 1.0625 0.875 C 0.984375 0.875 0.8125 0.875 0.703125 0.828125 C 0.8125 0.765625 0.8125 0.625 0.8125 0.625 C 0.8125 0.53125 0.75 0.453125 0.640625 0.453125 C 0.515625 0.453125 0.390625 0.5625 0.390625 0.71875 C 0.390625 0.984375 0.703125 1.015625 1.046875 1.015625 C 1.765625 1.015625 2.09375 0.625 2.171875 0.3125 Z M 2.0625 -0.703125 C 2.015625 -0.546875 1.6875 -0.140625 1.375 -0.140625 C 1.140625 -0.140625 1.03125 -0.34375 1.03125 -0.59375 C 1.03125 -0.8125 1.15625 -1.359375 1.3125 -1.625 C 1.484375 -1.921875 1.703125 -2.046875 1.875 -2.046875 C 2.21875 -2.046875 2.28125 -1.625 2.28125 -1.578125 Z M 2.0625 -0.703125 "/>
</g>
<g id="glyph-2-9">
<path d="M 2.875 -1.34375 C 2.875 -1.8125 2.53125 -2.1875 2.03125 -2.1875 C 1.3125 -2.1875 0.640625 -1.5 0.640625 -0.8125 C 0.640625 -0.296875 1 0.046875 1.5 0.046875 C 2.203125 0.046875 2.875 -0.640625 2.875 -1.34375 Z M 1.5 -0.09375 C 1.359375 -0.09375 1.03125 -0.15625 1.03125 -0.640625 C 1.03125 -0.859375 1.140625 -1.375 1.375 -1.6875 C 1.546875 -1.921875 1.796875 -2.046875 2.015625 -2.046875 C 2.203125 -2.046875 2.484375 -1.953125 2.484375 -1.5 C 2.484375 -1.34375 2.40625 -0.859375 2.203125 -0.515625 C 2.046875 -0.28125 1.765625 -0.09375 1.5 -0.09375 Z M 1.5 -0.09375 "/>
</g>
<g id="glyph-2-10">
<path d="M 1.515625 -1.765625 C 1.46875 -2.078125 1.21875 -2.1875 1.015625 -2.1875 C 0.8125 -2.1875 0.703125 -2.046875 0.625 -1.921875 C 0.515625 -1.765625 0.4375 -1.453125 0.4375 -1.4375 C 0.4375 -1.359375 0.5 -1.359375 0.546875 -1.359375 C 0.625 -1.359375 0.640625 -1.375 0.671875 -1.515625 C 0.75 -1.859375 0.84375 -2.046875 1 -2.046875 C 1.15625 -2.046875 1.15625 -1.875 1.15625 -1.8125 C 1.15625 -1.71875 1.09375 -1.46875 1.046875 -1.296875 L 0.921875 -0.75 C 0.90625 -0.6875 0.84375 -0.484375 0.828125 -0.421875 C 0.8125 -0.3125 0.765625 -0.140625 0.765625 -0.09375 C 0.765625 0.015625 0.84375 0.046875 0.921875 0.046875 C 1.078125 0.046875 1.125 -0.09375 1.140625 -0.171875 C 1.15625 -0.265625 1.21875 -0.5 1.25 -0.609375 C 1.265625 -0.6875 1.3125 -0.875 1.328125 -0.953125 C 1.34375 -1 1.40625 -1.25 1.421875 -1.28125 C 1.421875 -1.3125 1.578125 -1.640625 1.78125 -1.828125 C 1.921875 -1.96875 2.109375 -2.046875 2.296875 -2.046875 C 2.53125 -2.046875 2.578125 -1.875 2.578125 -1.71875 C 2.578125 -1.421875 2.34375 -0.8125 2.265625 -0.59375 C 2.21875 -0.46875 2.21875 -0.4375 2.21875 -0.375 C 2.21875 -0.09375 2.421875 0.046875 2.65625 0.046875 C 3.15625 0.046875 3.375 -0.625 3.375 -0.703125 C 3.375 -0.78125 3.3125 -0.78125 3.28125 -0.78125 C 3.1875 -0.78125 3.1875 -0.765625 3.15625 -0.671875 C 3.078125 -0.359375 2.890625 -0.09375 2.671875 -0.09375 C 2.609375 -0.09375 2.546875 -0.125 2.546875 -0.265625 C 2.546875 -0.375 2.59375 -0.484375 2.640625 -0.59375 C 2.71875 -0.828125 2.9375 -1.359375 2.9375 -1.640625 C 2.9375 -2.03125 2.65625 -2.1875 2.328125 -2.1875 C 1.921875 -2.1875 1.65625 -1.953125 1.515625 -1.765625 Z M 1.515625 -1.765625 "/>
</g>
<g id="glyph-2-11">
<path d="M 2.125 -1.84375 C 2.109375 -1.84375 1.984375 -1.765625 1.984375 -1.640625 C 1.984375 -1.578125 2.015625 -1.484375 2.140625 -1.484375 C 2.203125 -1.484375 2.359375 -1.515625 2.359375 -1.765625 C 2.359375 -2.078125 2.015625 -2.1875 1.734375 -2.1875 C 1.015625 -2.1875 0.859375 -1.65625 0.859375 -1.453125 C 0.859375 -1.0625 1.25 -0.984375 1.4375 -0.953125 C 1.671875 -0.90625 1.9375 -0.859375 1.9375 -0.59375 C 1.9375 -0.46875 1.8125 -0.09375 1.21875 -0.09375 C 1.0625 -0.09375 0.78125 -0.125 0.671875 -0.328125 C 0.84375 -0.375 0.875 -0.515625 0.875 -0.578125 C 0.875 -0.671875 0.8125 -0.734375 0.703125 -0.734375 C 0.578125 -0.734375 0.453125 -0.640625 0.453125 -0.4375 C 0.453125 -0.140625 0.75 0.046875 1.21875 0.046875 C 2.0625 0.046875 2.25 -0.546875 2.25 -0.78125 C 2.25 -0.921875 2.1875 -1.0625 2.078125 -1.171875 C 1.921875 -1.28125 1.796875 -1.3125 1.53125 -1.359375 C 1.390625 -1.390625 1.171875 -1.4375 1.171875 -1.640625 C 1.171875 -1.71875 1.25 -2.046875 1.71875 -2.046875 C 1.84375 -2.046875 2.046875 -2.03125 2.125 -1.84375 Z M 2.125 -1.84375 "/>
</g>
<g id="glyph-2-12">
<path d="M 2.40625 -1.875 C 2.265625 -1.828125 2.21875 -1.71875 2.21875 -1.625 C 2.21875 -1.546875 2.265625 -1.46875 2.390625 -1.46875 C 2.484375 -1.46875 2.640625 -1.515625 2.640625 -1.765625 C 2.640625 -2.078125 2.296875 -2.1875 2.015625 -2.1875 C 1.328125 -2.1875 0.640625 -1.515625 0.640625 -0.8125 C 0.640625 -0.34375 0.953125 0.046875 1.515625 0.046875 C 2.3125 0.046875 2.6875 -0.421875 2.6875 -0.484375 C 2.6875 -0.515625 2.625 -0.59375 2.578125 -0.59375 C 2.546875 -0.59375 2.53125 -0.59375 2.5 -0.546875 C 2.203125 -0.1875 1.765625 -0.09375 1.515625 -0.09375 C 1.265625 -0.09375 1.03125 -0.234375 1.03125 -0.640625 C 1.03125 -0.875 1.140625 -1.390625 1.375 -1.6875 C 1.578125 -1.9375 1.8125 -2.046875 2.03125 -2.046875 C 2.109375 -2.046875 2.328125 -2.03125 2.40625 -1.875 Z M 2.40625 -1.875 "/>
</g>
<g id="glyph-2-13">
<path d="M 0.578125 0.609375 C 0.546875 0.75 0.515625 0.78125 0.328125 0.78125 C 0.265625 0.78125 0.203125 0.78125 0.203125 0.890625 C 0.203125 0.9375 0.234375 0.96875 0.265625 0.96875 C 0.390625 0.96875 0.546875 0.9375 0.6875 0.9375 C 0.84375 0.9375 1.03125 0.96875 1.1875 0.96875 C 1.21875 0.96875 1.296875 0.96875 1.296875 0.859375 C 1.296875 0.78125 1.234375 0.78125 1.140625 0.78125 C 1.0625 0.78125 0.921875 0.78125 0.921875 0.71875 C 0.921875 0.703125 0.953125 0.578125 0.96875 0.5 L 1.15625 -0.234375 C 1.21875 -0.125 1.375 0.046875 1.640625 0.046875 C 2.25 0.046875 2.875 -0.65625 2.875 -1.375 C 2.875 -1.875 2.5625 -2.1875 2.171875 -2.1875 C 1.859375 -2.1875 1.59375 -1.953125 1.5 -1.859375 C 1.421875 -2.125 1.15625 -2.1875 1.015625 -2.1875 C 0.8125 -2.1875 0.703125 -2.046875 0.625 -1.921875 C 0.515625 -1.765625 0.4375 -1.453125 0.4375 -1.4375 C 0.4375 -1.359375 0.5 -1.359375 0.546875 -1.359375 C 0.625 -1.359375 0.640625 -1.375 0.671875 -1.515625 C 0.75 -1.859375 0.84375 -2.046875 1 -2.046875 C 1.15625 -2.046875 1.15625 -1.875 1.15625 -1.8125 C 1.15625 -1.765625 1.15625 -1.71875 1.140625 -1.640625 Z M 1.453125 -1.46875 C 1.5 -1.65625 1.84375 -2.046875 2.15625 -2.046875 C 2.390625 -2.046875 2.5 -1.84375 2.5 -1.578125 C 2.5 -1.34375 2.359375 -0.796875 2.25 -0.578125 C 2.03125 -0.171875 1.78125 -0.09375 1.640625 -0.09375 C 1.3125 -0.09375 1.234375 -0.5 1.234375 -0.578125 C 1.234375 -0.59375 1.25 -0.59375 1.25 -0.640625 Z M 1.453125 -1.46875 "/>
</g>
<g id="glyph-2-14">
<path d="M 1.4375 -1.96875 L 1.9375 -1.96875 C 2.015625 -1.96875 2.078125 -1.96875 2.078125 -2.078125 C 2.078125 -2.140625 2.015625 -2.140625 1.9375 -2.140625 L 1.484375 -2.140625 L 1.671875 -2.859375 C 1.6875 -2.921875 1.6875 -2.9375 1.6875 -2.953125 C 1.6875 -3.046875 1.609375 -3.109375 1.53125 -3.109375 C 1.359375 -3.109375 1.3125 -2.9375 1.3125 -2.890625 L 1.125 -2.140625 L 0.625 -2.140625 C 0.53125 -2.140625 0.484375 -2.140625 0.484375 -2.03125 C 0.484375 -1.96875 0.53125 -1.96875 0.609375 -1.96875 L 1.078125 -1.96875 L 0.734375 -0.59375 C 0.703125 -0.484375 0.703125 -0.453125 0.703125 -0.421875 C 0.703125 -0.109375 0.953125 0.046875 1.203125 0.046875 C 1.75 0.046875 2.0625 -0.640625 2.0625 -0.71875 C 2.0625 -0.78125 2 -0.78125 1.96875 -0.78125 C 1.890625 -0.78125 1.875 -0.765625 1.84375 -0.703125 C 1.609375 -0.171875 1.359375 -0.09375 1.21875 -0.09375 C 1.046875 -0.09375 1.046875 -0.265625 1.046875 -0.328125 C 1.046875 -0.40625 1.078125 -0.515625 1.078125 -0.53125 Z M 1.4375 -1.96875 "/>
</g>
</g>
<clipPath id="clip-0">
<path clip-rule="nonzero" d="M 0.101562 40 L 79 40 L 79 77 L 0.101562 77 Z M 0.101562 40 "/>
</clipPath>
<clipPath id="clip-1">
<path clip-rule="nonzero" d="M 23 85 L 107 85 L 107 117.410156 L 23 117.410156 Z M 23 85 "/>
</clipPath>
<clipPath id="clip-2">
<path clip-rule="nonzero" d="M 114 85 L 192.339844 85 L 192.339844 117.410156 L 114 117.410156 Z M 114 85 "/>
</clipPath>
</defs>
<path fill-rule="nonzero" fill="rgb(94.999695%, 97.499084%, 97.499084%)" fill-opacity="1" stroke-width="0.49814" stroke-linecap="butt" stroke-linejoin="miter" stroke="rgb(0%, 34.999084%, 34.999084%)" stroke-opacity="1" stroke-miterlimit="10" d="M 33.596381 56.440025 L -33.595035 56.440025 C -34.147197 56.440025 -34.589709 55.993596 -34.589709 55.441435 L -34.589709 35.265996 C -34.589709 34.717751 -34.147197 34.271322 -33.595035 34.271322 L 33.596381 34.271322 C 34.144627 34.271322 34.591055 34.717751 34.591055 35.265996 L 34.591055 55.441435 C 34.591055 55.993596 34.144627 56.440025 33.596381 56.440025 Z M 33.596381 56.440025 " transform="matrix(0.9975, 0, 0, -0.9975, 87.73761, 58.5333)"/>
<g fill="rgb(0%, 0%, 0%)" fill-opacity="1">
<use xlink:href="#glyph-0-0" x="63.39861" y="10.434848"/>
<use xlink:href="#glyph-0-1" x="69.957233" y="10.434848"/>
<use xlink:href="#glyph-0-2" x="72.963306" y="10.434848"/>
<use xlink:href="#glyph-0-3" x="76.292257" y="10.434848"/>
<use xlink:href="#glyph-0-4" x="81.211449" y="10.434848"/>
<use xlink:href="#glyph-0-0" x="84.491207" y="10.434848"/>
<use xlink:href="#glyph-0-5" x="91.049831" y="10.434848"/>
<use xlink:href="#glyph-0-6" x="94.821509" y="10.434848"/>
<use xlink:href="#glyph-0-7" x="97.107591" y="10.434848"/>
<use xlink:href="#glyph-0-8" x="101.803183" y="10.434848"/>
<use xlink:href="#glyph-0-6" x="105.418341" y="10.434848"/>
<use xlink:href="#glyph-0-9" x="107.704424" y="10.434848"/>
</g>
<g fill="rgb(0%, 0%, 0%)" fill-opacity="1">
<use xlink:href="#glyph-1-0" x="77.179072" y="22.35996"/>
<use xlink:href="#glyph-1-1" x="79.819021" y="22.35996"/>
<use xlink:href="#glyph-1-2" x="82.458969" y="22.35996"/>
<use xlink:href="#glyph-1-3" x="85.098917" y="22.35996"/>
<use xlink:href="#glyph-1-4" x="87.738866" y="22.35996"/>
<use xlink:href="#glyph-1-5" x="90.378814" y="22.35996"/>
<use xlink:href="#glyph-1-6" x="93.018762" y="22.35996"/>
<use xlink:href="#glyph-1-6" x="95.65871" y="22.35996"/>
</g>
<path fill-rule="nonzero" fill="rgb(94.999695%, 97.499084%, 97.499084%)" fill-opacity="1" d="M 70.351562 47.132812 L 3.328125 47.132812 C 2.78125 47.132812 2.335938 47.578125 2.335938 48.125 L 2.335938 68.941406 C 2.335938 69.488281 2.78125 69.933594 3.328125 69.933594 L 70.351562 69.933594 C 70.902344 69.933594 71.347656 69.488281 71.347656 68.941406 L 71.347656 48.125 C 71.347656 47.578125 70.902344 47.132812 70.351562 47.132812 Z M 70.351562 47.132812 "/>
<g clip-path="url(#clip-0)">
<path fill="none" stroke-width="0.49814" stroke-linecap="butt" stroke-linejoin="miter" stroke="rgb(0%, 34.999084%, 34.999084%)" stroke-opacity="1" stroke-miterlimit="10" d="M -17.429622 11.42906 L -84.621038 11.42906 C -85.169283 11.42906 -85.615712 10.982632 -85.615712 10.434386 L -85.615712 -10.434192 C -85.615712 -10.982437 -85.169283 -11.428866 -84.621038 -11.428866 L -17.429622 -11.428866 C -16.87746 -11.428866 -16.431031 -10.982437 -16.431031 -10.434192 L -16.431031 10.434386 C -16.431031 10.982632 -16.87746 11.42906 -17.429622 11.42906 Z M -17.429622 11.42906 " transform="matrix(0.9975, 0, 0, -0.9975, 87.73761, 58.5333)"/>
</g>
<g fill="rgb(0%, 0%, 0%)" fill-opacity="1">
<use xlink:href="#glyph-0-0" x="19.972448" y="55.330327"/>
<use xlink:href="#glyph-0-10" x="26.531071" y="55.330327"/>
<use xlink:href="#glyph-0-11" x="34.282822" y="55.330327"/>
<use xlink:href="#glyph-0-7" x="39.301291" y="55.330327"/>
</g>
<g fill="rgb(0%, 0%, 0%)" fill-opacity="1">
<use xlink:href="#glyph-0-2" x="43.719619" y="55.330327"/>
<use xlink:href="#glyph-0-6" x="47.04857" y="55.330327"/>
<use xlink:href="#glyph-0-9" x="49.334653" y="55.330327"/>
</g>
<g fill="rgb(0%, 0%, 0%)" fill-opacity="1">
<use xlink:href="#glyph-1-0" x="13.73109" y="67.256438"/>
<use xlink:href="#glyph-1-7" x="16.371038" y="67.256438"/>
<use xlink:href="#glyph-1-8" x="19.010987" y="67.256438"/>
</g>
<g fill="rgb(0%, 0%, 0%)" fill-opacity="1">
<use xlink:href="#glyph-1-0" x="24.965156" y="67.256438"/>
<use xlink:href="#glyph-1-7" x="27.605104" y="67.256438"/>
</g>
<g fill="rgb(0%, 0%, 0%)" fill-opacity="1">
<use xlink:href="#glyph-1-9" x="30.240083" y="67.256438"/>
<use xlink:href="#glyph-1-8" x="32.880032" y="67.256438"/>
</g>
<g fill="rgb(0%, 0%, 0%)" fill-opacity="1">
<use xlink:href="#glyph-1-0" x="38.834201" y="67.256438"/>
<use xlink:href="#glyph-1-7" x="41.474149" y="67.256438"/>
<use xlink:href="#glyph-1-9" x="44.114097" y="67.256438"/>
<use xlink:href="#glyph-1-0" x="46.754046" y="67.256438"/>
<use xlink:href="#glyph-1-4" x="49.393994" y="67.256438"/>
<use xlink:href="#glyph-1-5" x="52.033942" y="67.256438"/>
<use xlink:href="#glyph-1-10" x="54.67389" y="67.256438"/>
<use xlink:href="#glyph-1-6" x="57.313839" y="67.256438"/>
</g>
<path fill-rule="nonzero" fill="rgb(94.999695%, 97.499084%, 97.499084%)" fill-opacity="1" stroke-width="0.49814" stroke-linecap="butt" stroke-linejoin="miter" stroke="rgb(0%, 34.999084%, 34.999084%)" stroke-opacity="1" stroke-miterlimit="10" d="M 67.611105 11.63661 L 0.419689 11.63661 C -0.128556 11.63661 -0.574985 11.190182 -0.574985 10.641936 L -0.574985 -10.641742 C -0.574985 -11.189987 -0.128556 -11.636416 0.419689 -11.636416 L 67.611105 -11.636416 C 68.163267 -11.636416 68.605779 -11.189987 68.605779 -10.641742 L 68.605779 10.641936 C 68.605779 11.190182 68.163267 11.63661 67.611105 11.63661 Z M 67.611105 11.63661 " transform="matrix(0.9975, 0, 0, -0.9975, 87.73761, 58.5333)"/>
<g fill="rgb(0%, 0%, 0%)" fill-opacity="1">
<use xlink:href="#glyph-0-12" x="105.02229" y="55.123845"/>
<use xlink:href="#glyph-0-6" x="111.580913" y="55.123845"/>
<use xlink:href="#glyph-0-13" x="113.866996" y="55.123845"/>
<use xlink:href="#glyph-0-2" x="118.786187" y="55.123845"/>
<use xlink:href="#glyph-0-6" x="122.115138" y="55.123845"/>
<use xlink:href="#glyph-0-14" x="124.40122" y="55.123845"/>
<use xlink:href="#glyph-0-15" x="129.41969" y="55.123845"/>
</g>
<g fill="rgb(0%, 0%, 0%)" fill-opacity="1">
<use xlink:href="#glyph-0-7" x="133.614418" y="55.123845"/>
</g>
<g fill="rgb(0%, 0%, 0%)" fill-opacity="1">
<use xlink:href="#glyph-1-11" x="98.55849" y="67.048957"/>
<use xlink:href="#glyph-1-12" x="101.198438" y="67.048957"/>
<use xlink:href="#glyph-1-8" x="103.838387" y="67.048957"/>
</g>
<g fill="rgb(0%, 0%, 0%)" fill-opacity="1">
<use xlink:href="#glyph-1-11" x="109.787587" y="67.048957"/>
<use xlink:href="#glyph-1-12" x="112.427535" y="67.048957"/>
<use xlink:href="#glyph-1-2" x="115.067483" y="67.048957"/>
<use xlink:href="#glyph-1-8" x="117.707432" y="67.048957"/>
</g>
<g fill="rgb(0%, 0%, 0%)" fill-opacity="1">
<use xlink:href="#glyph-1-11" x="123.661601" y="67.048957"/>
<use xlink:href="#glyph-1-12" x="126.301549" y="67.048957"/>
<use xlink:href="#glyph-1-13" x="128.941497" y="67.048957"/>
<use xlink:href="#glyph-1-2" x="131.581446" y="67.048957"/>
<use xlink:href="#glyph-1-4" x="134.221394" y="67.048957"/>
<use xlink:href="#glyph-1-5" x="136.861342" y="67.048957"/>
<use xlink:href="#glyph-1-14" x="139.50129" y="67.048957"/>
<use xlink:href="#glyph-1-4" x="142.141239" y="67.048957"/>
</g>
<path fill-rule="nonzero" fill="rgb(94.999695%, 100%, 94.999695%)" fill-opacity="1" d="M 98.628906 92.375 L 31.605469 92.375 C 31.058594 92.375 30.613281 92.820312 30.613281 93.367188 L 30.613281 114.183594 C 30.613281 114.730469 31.058594 115.175781 31.605469 115.175781 L 98.628906 115.175781 C 99.175781 115.175781 99.621094 114.730469 99.621094 114.183594 L 99.621094 93.367188 C 99.621094 92.820312 99.175781 92.375 98.628906 92.375 Z M 98.628906 92.375 "/>
<g clip-path="url(#clip-1)">
<path fill="none" stroke-width="0.49814" stroke-linecap="butt" stroke-linejoin="miter" stroke="rgb(0%, 69.999695%, 0%)" stroke-opacity="1" stroke-miterlimit="10" d="M 10.918593 -33.926516 L -56.272823 -33.926516 C -56.821069 -33.926516 -57.267497 -34.372945 -57.267497 -34.92119 L -57.267497 -55.789768 C -57.267497 -56.338014 -56.821069 -56.784442 -56.272823 -56.784442 L 10.918593 -56.784442 C 11.466838 -56.784442 11.913267 -56.338014 11.913267 -55.789768 L 11.913267 -34.92119 C 11.913267 -34.372945 11.466838 -33.926516 10.918593 -33.926516 Z M 10.918593 -33.926516 " transform="matrix(0.9975, 0, 0, -0.9975, 87.73761, 58.5333)"/>
</g>
<g fill="rgb(0%, 0%, 0%)" fill-opacity="1">
<use xlink:href="#glyph-0-16" x="48.32838" y="100.57194"/>
<use xlink:href="#glyph-0-8" x="54.067735" y="100.57194"/>
<use xlink:href="#glyph-0-11" x="57.682893" y="100.57194"/>
<use xlink:href="#glyph-0-6" x="62.701362" y="100.57194"/>
<use xlink:href="#glyph-0-3" x="64.987445" y="100.57194"/>
<use xlink:href="#glyph-0-17" x="69.906636" y="100.57194"/>
<use xlink:href="#glyph-0-6" x="74.925105" y="100.57194"/>
<use xlink:href="#glyph-0-7" x="77.211188" y="100.57194"/>
</g>
<g fill="rgb(0%, 0%, 0%)" fill-opacity="1">
<use xlink:href="#glyph-1-15" x="55.5423" y="112.497052"/>
<use xlink:href="#glyph-1-16" x="58.182248" y="112.497052"/>
<use xlink:href="#glyph-1-8" x="60.822197" y="112.497052"/>
</g>
<g fill="rgb(0%, 0%, 0%)" fill-opacity="1">
<use xlink:href="#glyph-1-15" x="66.771397" y="112.497052"/>
<use xlink:href="#glyph-1-16" x="69.411345" y="112.497052"/>
<use xlink:href="#glyph-1-17" x="72.051293" y="112.497052"/>
</g>
<path fill-rule="nonzero" fill="rgb(100%, 97.499084%, 94.999695%)" fill-opacity="1" d="M 189.109375 92.375 L 122.089844 92.375 C 121.539062 92.375 121.09375 92.820312 121.09375 93.367188 L 121.09375 114.183594 C 121.09375 114.730469 121.539062 115.175781 122.089844 115.175781 L 189.109375 115.175781 C 189.660156 115.175781 190.105469 114.730469 190.105469 114.183594 L 190.105469 93.367188 C 190.105469 92.820312 189.660156 92.375 189.109375 92.375 Z M 189.109375 92.375 "/>
<g clip-path="url(#clip-2)">
<path fill="none" stroke-width="0.49814" stroke-linecap="butt" stroke-linejoin="miter" stroke="rgb(69.999695%, 34.999084%, 0%)" stroke-opacity="1" stroke-miterlimit="10" d="M 101.62583 -33.926516 L 34.43833 -33.926516 C 33.886168 -33.926516 33.439739 -34.372945 33.439739 -34.92119 L 33.439739 -55.789768 C 33.439739 -56.338014 33.886168 -56.784442 34.43833 -56.784442 L 101.62583 -56.784442 C 102.177991 -56.784442 102.62442 -56.338014 102.62442 -55.789768 L 102.62442 -34.92119 C 102.62442 -34.372945 102.177991 -33.926516 101.62583 -33.926516 Z M 101.62583 -33.926516 " transform="matrix(0.9975, 0, 0, -0.9975, 87.73761, 58.5333)"/>
</g>
<g fill="rgb(0%, 0%, 0%)" fill-opacity="1">
<use xlink:href="#glyph-0-16" x="138.972202" y="100.57194"/>
<use xlink:href="#glyph-0-8" x="144.711557" y="100.57194"/>
<use xlink:href="#glyph-0-11" x="148.326715" y="100.57194"/>
<use xlink:href="#glyph-0-6" x="153.345185" y="100.57194"/>
<use xlink:href="#glyph-0-3" x="155.631267" y="100.57194"/>
<use xlink:href="#glyph-0-17" x="160.550458" y="100.57194"/>
<use xlink:href="#glyph-0-6" x="165.568928" y="100.57194"/>
<use xlink:href="#glyph-0-9" x="167.85501" y="100.57194"/>
</g>
<g fill="rgb(0%, 0%, 0%)" fill-opacity="1">
<use xlink:href="#glyph-1-15" x="140.743763" y="112.497052"/>
<use xlink:href="#glyph-1-11" x="143.383711" y="112.497052"/>
<use xlink:href="#glyph-1-9" x="146.023659" y="112.497052"/>
<use xlink:href="#glyph-1-12" x="148.663607" y="112.497052"/>
<use xlink:href="#glyph-1-8" x="151.303556" y="112.497052"/>
</g>
<g fill="rgb(0%, 0%, 0%)" fill-opacity="1">
<use xlink:href="#glyph-1-18" x="157.252756" y="112.497052"/>
<use xlink:href="#glyph-1-19" x="159.892704" y="112.497052"/>
<use xlink:href="#glyph-1-20" x="162.532652" y="112.497052"/>
<use xlink:href="#glyph-1-19" x="165.172601" y="112.497052"/>
<use xlink:href="#glyph-1-21" x="167.812549" y="112.497052"/>
</g>
<path fill="none" stroke-width="0.59776" stroke-linecap="butt" stroke-linejoin="miter" stroke="rgb(69.999695%, 69.999695%, 69.999695%)" stroke-opacity="1" stroke-miterlimit="10" d="M -36.395004 13.003308 L -16.912704 30.316122 " transform="matrix(0.9975, 0, 0, -0.9975, 87.73761, 58.5333)"/>
<path fill-rule="nonzero" fill="rgb(69.999695%, 69.999695%, 69.999695%)" fill-opacity="1" stroke-width="0.59776" stroke-linecap="butt" stroke-linejoin="miter" stroke="rgb(69.999695%, 69.999695%, 69.999695%)" stroke-opacity="1" stroke-miterlimit="10" d="M 4.828179 -0.000814404 L 0.96408 1.4582 L 2.240039 -0.000669732 L 0.96656 -1.457116 Z M 4.828179 -0.000814404 " transform="matrix(0.745551, -0.662619, -0.662619, -0.745551, 69.306054, 29.679106)"/>
<path fill-rule="nonzero" fill="rgb(100%, 100%, 100%)" fill-opacity="1" d="M 51.085938 41.171875 L 68.871094 41.171875 L 68.871094 34.765625 L 51.085938 34.765625 Z M 51.085938 41.171875 "/>
<g fill="rgb(0%, 0%, 0%)" fill-opacity="1">
<use xlink:href="#glyph-2-0" x="52.081972" y="39.210727"/>
<use xlink:href="#glyph-2-1" x="53.911999" y="39.210727"/>
<use xlink:href="#glyph-2-2" x="56.909207" y="39.210727"/>
<use xlink:href="#glyph-2-3" x="61.657437" y="39.210727"/>
<use xlink:href="#glyph-2-4" x="63.487463" y="39.210727"/>
<use xlink:href="#glyph-2-5" x="65.025321" y="39.210727"/>
</g>
<path fill="none" stroke-width="0.59776" stroke-linecap="butt" stroke-linejoin="miter" stroke="rgb(69.999695%, 69.999695%, 69.999695%)" stroke-opacity="1" stroke-miterlimit="10" d="M 23.904182 13.481065 L 11.842778 29.560326 " transform="matrix(0.9975, 0, 0, -0.9975, 87.73761, 58.5333)"/>
<path fill-rule="nonzero" fill="rgb(69.999695%, 69.999695%, 69.999695%)" fill-opacity="1" stroke-width="0.59776" stroke-linecap="butt" stroke-linejoin="miter" stroke="rgb(69.999695%, 69.999695%, 69.999695%)" stroke-opacity="1" stroke-miterlimit="10" d="M 4.829285 -0.000806405 L 0.964874 1.458564 L 2.241473 0.00167787 L 0.964722 -1.458991 Z M 4.829285 -0.000806405 " transform="matrix(-0.59852, -0.79794, -0.79794, 0.59852, 100.803843, 30.717244)"/>
<path fill-rule="nonzero" fill="rgb(100%, 100%, 100%)" fill-opacity="1" d="M 97.257812 41.046875 L 115.042969 41.046875 L 115.042969 34.640625 L 97.257812 34.640625 Z M 97.257812 41.046875 "/>
<g fill="rgb(0%, 0%, 0%)" fill-opacity="1">
<use xlink:href="#glyph-2-0" x="98.253255" y="39.087037"/>
<use xlink:href="#glyph-2-1" x="100.083281" y="39.087037"/>
<use xlink:href="#glyph-2-2" x="103.08049" y="39.087037"/>
<use xlink:href="#glyph-2-3" x="107.82872" y="39.087037"/>
<use xlink:href="#glyph-2-4" x="109.658746" y="39.087037"/>
<use xlink:href="#glyph-2-5" x="111.196604" y="39.087037"/>
</g>
<path fill="none" stroke-width="0.59776" stroke-linecap="butt" stroke-linejoin="miter" stroke="rgb(69.999695%, 69.999695%, 69.999695%)" stroke-opacity="1" stroke-miterlimit="10" d="M -42.672416 -13.367306 L -32.933224 -28.945313 " transform="matrix(0.9975, 0, 0, -0.9975, 87.73761, 58.5333)"/>
<path fill-rule="nonzero" fill="rgb(69.999695%, 69.999695%, 69.999695%)" fill-opacity="1" stroke-width="0.59776" stroke-linecap="butt" stroke-linejoin="miter" stroke="rgb(69.999695%, 69.999695%, 69.999695%)" stroke-opacity="1" stroke-miterlimit="10" d="M 4.826596 0.00151165 L 0.966737 1.458721 L 2.240477 0.00191188 L 0.966286 -1.459899 Z M 4.826596 0.00151165 " transform="matrix(0.528795, 0.84578, 0.84578, -0.528795, 53.782381, 85.63731)"/>
<path fill-rule="nonzero" fill="rgb(100%, 100%, 100%)" fill-opacity="1" d="M 40.214844 80.972656 L 57.628906 80.972656 L 57.628906 74.753906 L 40.214844 74.753906 Z M 40.214844 80.972656 "/>
<g fill="rgb(0%, 0%, 0%)" fill-opacity="1">
<use xlink:href="#glyph-2-6" x="41.207228" y="79.010977"/>
</g>
<g fill="rgb(0%, 0%, 0%)" fill-opacity="1">
<use xlink:href="#glyph-2-7" x="43.400476" y="79.010977"/>
</g>
<g fill="rgb(0%, 0%, 0%)" fill-opacity="1">
<use xlink:href="#glyph-2-8" x="45.81782" y="79.010977"/>
</g>
<g fill="rgb(0%, 0%, 0%)" fill-opacity="1">
<use xlink:href="#glyph-2-3" x="48.518389" y="79.010977"/>
<use xlink:href="#glyph-2-9" x="50.348415" y="79.010977"/>
<use xlink:href="#glyph-2-10" x="53.345623" y="79.010977"/>
</g>
<path fill="none" stroke-width="0.59776" stroke-linecap="butt" stroke-linejoin="miter" stroke="rgb(69.999695%, 69.999695%, 69.999695%)" stroke-opacity="1" stroke-miterlimit="10" d="M 17.607189 -13.132343 L -3.727397 -30.190614 " transform="matrix(0.9975, 0, 0, -0.9975, 87.73761, 58.5333)"/>
<path fill-rule="nonzero" fill="rgb(69.999695%, 69.999695%, 69.999695%)" fill-opacity="1" stroke-width="0.59776" stroke-linecap="butt" stroke-linejoin="miter" stroke="rgb(69.999695%, 69.999695%, 69.999695%)" stroke-opacity="1" stroke-miterlimit="10" d="M 4.829214 0.000500949 L 0.964094 1.456683 L 2.24082 -0.000583667 L 0.965239 -1.457706 Z M 4.829214 0.000500949 " transform="matrix(-0.778978, 0.622949, 0.622949, 0.778978, 85.648256, 87.346726)"/>
<path fill-rule="nonzero" fill="rgb(100%, 100%, 100%)" fill-opacity="1" d="M 88.628906 81.105469 L 106.046875 81.105469 L 106.046875 74.890625 L 88.628906 74.890625 Z M 88.628906 81.105469 "/>
<g fill="rgb(0%, 0%, 0%)" fill-opacity="1">
<use xlink:href="#glyph-2-6" x="89.62488" y="79.14564"/>
</g>
<g fill="rgb(0%, 0%, 0%)" fill-opacity="1">
<use xlink:href="#glyph-2-7" x="91.818129" y="79.14564"/>
</g>
<g fill="rgb(0%, 0%, 0%)" fill-opacity="1">
<use xlink:href="#glyph-2-8" x="94.230504" y="79.14564"/>
<use xlink:href="#glyph-2-3" x="96.936041" y="79.14564"/>
<use xlink:href="#glyph-2-9" x="98.766067" y="79.14564"/>
<use xlink:href="#glyph-2-10" x="101.763276" y="79.14564"/>
</g>
<path fill="none" stroke-width="0.59776" stroke-linecap="butt" stroke-linejoin="miter" stroke="rgb(69.999695%, 69.999695%, 69.999695%)" stroke-opacity="1" stroke-miterlimit="10" d="M -22.340336 -12.474449 C 14.172822 -28.346159 14.172822 -28.346159 27.87113 -32.673383 " transform="matrix(0.9975, 0, 0, -0.9975, 87.73761, 58.5333)"/>
<path fill-rule="nonzero" fill="rgb(69.999695%, 69.999695%, 69.999695%)" fill-opacity="1" stroke-width="0.59776" stroke-linecap="butt" stroke-linejoin="miter" stroke="rgb(69.999695%, 69.999695%, 69.999695%)" stroke-opacity="1" stroke-miterlimit="10" d="M 4.827089 -0.00128184 L 0.965888 1.456702 L 2.239696 -0.0013684 L 0.966993 -1.458931 Z M 4.827089 -0.00128184 " transform="matrix(0.951116, 0.300467, 0.300467, -0.951116, 113.549888, 90.497619)"/>
<path fill-rule="nonzero" fill="rgb(100%, 100%, 100%)" fill-opacity="1" d="M 67.648438 78.597656 L 84.042969 78.597656 L 84.042969 72.378906 L 67.648438 72.378906 Z M 67.648438 78.597656 "/>
<g fill="rgb(0%, 0%, 0%)" fill-opacity="1">
<use xlink:href="#glyph-2-11" x="68.64147" y="76.636927"/>
<use xlink:href="#glyph-2-12" x="71.054839" y="76.636927"/>
<use xlink:href="#glyph-2-6" x="73.760376" y="76.636927"/>
<use xlink:href="#glyph-2-3" x="76.246787" y="76.636927"/>
<use xlink:href="#glyph-2-13" x="78.076813" y="76.636927"/>
<use xlink:href="#glyph-2-14" x="81.074021" y="76.636927"/>
</g>
<path fill="none" stroke-width="0.59776" stroke-linecap="butt" stroke-linejoin="miter" stroke="rgb(69.999695%, 69.999695%, 69.999695%)" stroke-opacity="1" stroke-miterlimit="10" d="M 44.122697 -13.480871 L 55.929558 -29.211604 " transform="matrix(0.9975, 0, 0, -0.9975, 87.73761, 58.5333)"/>
<path fill-rule="nonzero" fill="rgb(69.999695%, 69.999695%, 69.999695%)" fill-opacity="1" stroke-width="0.59776" stroke-linecap="butt" stroke-linejoin="miter" stroke="rgb(69.999695%, 69.999695%, 69.999695%)" stroke-opacity="1" stroke-miterlimit="10" d="M 4.826802 0.000836999 L 0.965774 1.45831 L 2.24217 0.0012919 L 0.96526 -1.459193 Z M 4.826802 0.000836999 " transform="matrix(0.59863, 0.79788, 0.79788, -0.59863, 142.273928, 86.004759)"/>
<path fill-rule="nonzero" fill="rgb(100%, 100%, 100%)" fill-opacity="1" d="M 128.558594 81.757812 L 144.953125 81.757812 L 144.953125 75.539062 L 128.558594 75.539062 Z M 128.558594 81.757812 "/>
<g fill="rgb(0%, 0%, 0%)" fill-opacity="1">
<use xlink:href="#glyph-2-11" x="129.550815" y="79.797008"/>
<use xlink:href="#glyph-2-12" x="131.964184" y="79.797008"/>
<use xlink:href="#glyph-2-6" x="134.669721" y="79.797008"/>
<use xlink:href="#glyph-2-3" x="137.156132" y="79.797008"/>
<use xlink:href="#glyph-2-13" x="138.986158" y="79.797008"/>
<use xlink:href="#glyph-2-14" x="141.983366" y="79.797008"/>
</g>
</svg>
